<svg width="237" height="32" viewBox="0 0 237 32" fill="none" xmlns="http://www.w3.org/2000/svg">
<rect width="237" height="32" fill="#070000"/>
<g style="mix-blend-mode:luminosity">
<mask id="path-1-outside-1_0_1" maskUnits="userSpaceOnUse" x="-1" y="-1" width="239" height="34" fill="black">
<rect fill="white" x="-1" y="-1" width="239" height="34"/>
<path d="M13.3271 1.90909H16.8498V22.7045C16.8498 24.5606 16.5089 26.1373 15.8271 27.4347C15.1452 28.732 14.1841 29.7169 12.9435 30.3892C11.703 31.0616 10.2399 31.3977 8.55433 31.3977C6.96342 31.3977 5.5477 31.1089 4.30717 30.5312C3.06664 29.9441 2.09126 29.1108 1.38104 28.0312C0.67081 26.9517 0.315696 25.6686 0.315696 24.1818H3.78161C3.78161 25.0057 3.9852 25.7254 4.3924 26.3409C4.80907 26.947 5.37725 27.4205 6.09695 27.7614C6.81664 28.1023 7.63577 28.2727 8.55433 28.2727C9.56759 28.2727 10.4293 28.0597 11.1396 27.6335C11.8498 27.2074 12.3896 26.5824 12.7589 25.7585C13.1377 24.9252 13.3271 23.9072 13.3271 22.7045V1.90909ZM32.3185 31.4545C30.3488 31.4545 28.6206 30.9858 27.1339 30.0483C25.6566 29.1108 24.5013 27.7992 23.668 26.1136C22.8441 24.428 22.4322 22.4583 22.4322 20.2045C22.4322 17.9318 22.8441 15.9479 23.668 14.2528C24.5013 12.5578 25.6566 11.2415 27.1339 10.304C28.6206 9.36648 30.3488 8.89773 32.3185 8.89773C34.2882 8.89773 36.0117 9.36648 37.489 10.304C38.9757 11.2415 40.131 12.5578 40.9549 14.2528C41.7882 15.9479 42.2049 17.9318 42.2049 20.2045C42.2049 22.4583 41.7882 24.428 40.9549 26.1136C40.131 27.7992 38.9757 29.1108 37.489 30.0483C36.0117 30.9858 34.2882 31.4545 32.3185 31.4545ZM32.3185 28.4432C33.8147 28.4432 35.0458 28.0597 36.0117 27.2926C36.9776 26.5256 37.6926 25.517 38.1566 24.267C38.6206 23.017 38.8526 21.6629 38.8526 20.2045C38.8526 18.7462 38.6206 17.3873 38.1566 16.1278C37.6926 14.8684 36.9776 13.8504 36.0117 13.0739C35.0458 12.2973 33.8147 11.9091 32.3185 11.9091C30.8223 11.9091 29.5913 12.2973 28.6254 13.0739C27.6594 13.8504 26.9445 14.8684 26.4805 16.1278C26.0165 17.3873 25.7844 18.7462 25.7844 20.2045C25.7844 21.6629 26.0165 23.017 26.4805 24.267C26.9445 25.517 27.6594 26.5256 28.6254 27.2926C29.5913 28.0597 30.8223 28.4432 32.3185 28.4432ZM47.7766 31V1.90909H51.1289V12.6477H51.413C51.6592 12.2689 52.0001 11.786 52.4357 11.1989C52.8808 10.6023 53.5153 10.072 54.3391 9.60795C55.1725 9.13447 56.2994 8.89773 57.7198 8.89773C59.5569 8.89773 61.1763 9.35701 62.5778 10.2756C63.9793 11.1941 65.073 12.4962 65.859 14.1818C66.645 15.8674 67.038 17.8561 67.038 20.1477C67.038 22.4583 66.645 24.4612 65.859 26.1562C65.073 27.8419 63.984 29.1487 62.592 30.0767C61.1999 30.9953 59.5948 31.4545 57.7766 31.4545C56.3751 31.4545 55.253 31.2225 54.4102 30.7585C53.5674 30.285 52.9187 29.75 52.4641 29.1534C52.0096 28.5473 51.6592 28.0455 51.413 27.6477H51.0153V31H47.7766ZM51.0721 20.0909C51.0721 21.7386 51.3136 23.1922 51.7965 24.4517C52.2795 25.7017 52.985 26.6818 53.913 27.392C54.841 28.0928 55.9774 28.4432 57.3221 28.4432C58.7236 28.4432 59.8931 28.0739 60.8306 27.3352C61.7776 26.5871 62.4878 25.5833 62.9613 24.3239C63.4442 23.0549 63.6857 21.6439 63.6857 20.0909C63.6857 18.5568 63.449 17.1742 62.9755 15.9432C62.5115 14.7027 61.806 13.7225 60.859 13.0028C59.9215 12.2737 58.7425 11.9091 57.3221 11.9091C55.9585 11.9091 54.8126 12.2547 53.8846 12.946C52.9566 13.6278 52.2558 14.5843 51.7823 15.8153C51.3088 17.0369 51.0721 18.4621 51.0721 20.0909ZM83.8704 31V1.90909H93.6999C95.9821 1.90909 97.8477 2.32102 99.2965 3.14489C100.755 3.95928 101.834 5.0625 102.535 6.45455C103.236 7.84659 103.586 9.39962 103.586 11.1136C103.586 12.8277 103.236 14.3854 102.535 15.7869C101.844 17.1884 100.774 18.3059 99.3249 19.1392C97.8761 19.9631 96.02 20.375 93.7567 20.375H86.7113V17.25H93.6431C95.2056 17.25 96.4603 16.9801 97.4073 16.4403C98.3543 15.9006 99.0408 15.1714 99.467 14.2528C99.9026 13.3248 100.12 12.2784 100.12 11.1136C100.12 9.94886 99.9026 8.9072 99.467 7.98864C99.0408 7.07008 98.3496 6.35038 97.3931 5.82955C96.4367 5.29924 95.1677 5.03409 93.5863 5.03409H87.3931V31H83.8704ZM112.159 1.90909V31H108.806V1.90909H112.159ZM124.719 31.5114C123.337 31.5114 122.082 31.2509 120.955 30.7301C119.828 30.1998 118.933 29.4375 118.27 28.4432C117.607 27.4394 117.276 26.2273 117.276 24.8068C117.276 23.5568 117.522 22.5436 118.015 21.767C118.507 20.9811 119.165 20.3655 119.989 19.9205C120.813 19.4754 121.722 19.1439 122.716 18.9261C123.72 18.6989 124.729 18.5189 125.742 18.3864C127.068 18.2159 128.142 18.0881 128.966 18.0028C129.8 17.9081 130.406 17.7519 130.784 17.5341C131.173 17.3163 131.367 16.9375 131.367 16.3977V16.2841C131.367 14.8826 130.983 13.7936 130.216 13.017C129.459 12.2405 128.308 11.8523 126.765 11.8523C125.164 11.8523 123.909 12.2027 123 12.9034C122.091 13.6042 121.452 14.3523 121.083 15.1477L117.901 14.0114C118.469 12.6856 119.227 11.6534 120.174 10.9148C121.13 10.1667 122.172 9.64583 123.299 9.35227C124.435 9.04924 125.552 8.89773 126.651 8.89773C127.352 8.89773 128.157 8.98295 129.066 9.15341C129.984 9.31439 130.87 9.65057 131.722 10.1619C132.584 10.6733 133.299 11.4451 133.867 12.4773C134.435 13.5095 134.719 14.892 134.719 16.625V31H131.367V28.0455H131.196C130.969 28.5189 130.59 29.0256 130.06 29.5653C129.53 30.1051 128.824 30.5644 127.944 30.9432C127.063 31.322 125.988 31.5114 124.719 31.5114ZM125.23 28.5C126.556 28.5 127.674 28.2396 128.583 27.7188C129.501 27.1979 130.193 26.5256 130.657 25.7017C131.13 24.8778 131.367 24.0114 131.367 23.1023V20.0341C131.225 20.2045 130.912 20.3608 130.429 20.5028C129.956 20.6354 129.407 20.7538 128.782 20.858C128.166 20.9527 127.565 21.0379 126.978 21.1136C126.4 21.1799 125.931 21.2367 125.571 21.2841C124.7 21.3977 123.886 21.5824 123.128 21.8381C122.38 22.0843 121.774 22.4583 121.31 22.9602C120.855 23.4527 120.628 24.125 120.628 24.9773C120.628 26.142 121.059 27.0227 121.921 27.6193C122.792 28.2064 123.895 28.5 125.23 28.5ZM150.326 9.18182V12.0227H139.02V9.18182H150.326ZM142.315 3.95455H145.667V24.75C145.667 25.697 145.805 26.4072 146.079 26.8807C146.363 27.3447 146.723 27.6572 147.159 27.8182C147.604 27.9697 148.073 28.0455 148.565 28.0455C148.934 28.0455 149.237 28.0265 149.474 27.9886C149.711 27.9413 149.9 27.9034 150.042 27.875L150.724 30.8864C150.497 30.9716 150.18 31.0568 149.772 31.142C149.365 31.2367 148.849 31.2841 148.224 31.2841C147.277 31.2841 146.349 31.0805 145.44 30.6733C144.54 30.2661 143.792 29.6458 143.196 28.8125C142.609 27.9792 142.315 26.928 142.315 25.6591V3.95455ZM165.085 9.18182V12.0227H153.324V9.18182H165.085ZM156.846 31V6.17045C156.846 4.92045 157.14 3.87879 157.727 3.04545C158.314 2.21212 159.076 1.58712 160.014 1.17045C160.951 0.753786 161.941 0.545453 162.983 0.545453C163.806 0.545453 164.479 0.611741 165 0.744318C165.52 0.876893 165.909 0.999998 166.164 1.11364L165.199 4.01136C165.028 3.95454 164.791 3.88352 164.488 3.7983C164.195 3.71307 163.806 3.67045 163.324 3.67045C162.216 3.67045 161.415 3.94981 160.923 4.50852C160.44 5.06723 160.199 5.88636 160.199 6.96591V31H156.846ZM177.748 31.4545C175.779 31.4545 174.05 30.9858 172.564 30.0483C171.086 29.1108 169.931 27.7992 169.098 26.1136C168.274 24.428 167.862 22.4583 167.862 20.2045C167.862 17.9318 168.274 15.9479 169.098 14.2528C169.931 12.5578 171.086 11.2415 172.564 10.304C174.05 9.36648 175.779 8.89773 177.748 8.89773C179.718 8.89773 181.441 9.36648 182.919 10.304C184.405 11.2415 185.561 12.5578 186.385 14.2528C187.218 15.9479 187.635 17.9318 187.635 20.2045C187.635 22.4583 187.218 24.428 186.385 26.1136C185.561 27.7992 184.405 29.1108 182.919 30.0483C181.441 30.9858 179.718 31.4545 177.748 31.4545ZM177.748 28.4432C179.244 28.4432 180.475 28.0597 181.441 27.2926C182.407 26.5256 183.122 25.517 183.586 24.267C184.05 23.017 184.282 21.6629 184.282 20.2045C184.282 18.7462 184.05 17.3873 183.586 16.1278C183.122 14.8684 182.407 13.8504 181.441 13.0739C180.475 12.2973 179.244 11.9091 177.748 11.9091C176.252 11.9091 175.021 12.2973 174.055 13.0739C173.089 13.8504 172.374 14.8684 171.91 16.1278C171.446 17.3873 171.214 18.7462 171.214 20.2045C171.214 21.6629 171.446 23.017 171.91 24.267C172.374 25.517 173.089 26.5256 174.055 27.2926C175.021 28.0597 176.252 28.4432 177.748 28.4432ZM192.752 31V9.18182H195.99V12.4773H196.218C196.615 11.3977 197.335 10.5218 198.377 9.84943C199.418 9.17708 200.593 8.84091 201.9 8.84091C202.146 8.84091 202.453 8.84564 202.823 8.85511C203.192 8.86458 203.471 8.87879 203.661 8.89773V12.3068C203.547 12.2784 203.287 12.2358 202.88 12.179C202.482 12.1127 202.06 12.0795 201.615 12.0795C200.555 12.0795 199.608 12.3021 198.775 12.7472C197.951 13.1828 197.297 13.7888 196.814 14.5653C196.341 15.3324 196.104 16.2083 196.104 17.1932V31H192.752ZM207.635 31V9.18182H210.873V12.5909H211.157C211.612 11.4261 212.346 10.5218 213.359 9.87784C214.372 9.22443 215.589 8.89773 217.01 8.89773C218.449 8.89773 219.647 9.22443 220.603 9.87784C221.569 10.5218 222.322 11.4261 222.862 12.5909H223.089C223.648 11.464 224.486 10.5691 225.603 9.90625C226.721 9.2339 228.061 8.89773 229.623 8.89773C231.574 8.89773 233.17 9.50852 234.41 10.7301C235.651 11.9422 236.271 13.8314 236.271 16.3977V31H232.919V16.3977C232.919 14.7879 232.478 13.6373 231.598 12.946C230.717 12.2547 229.68 11.9091 228.487 11.9091C226.953 11.9091 225.764 12.3731 224.922 13.3011C224.079 14.2197 223.657 15.3845 223.657 16.7955V31H220.248V16.0568C220.248 14.8163 219.846 13.8172 219.041 13.0597C218.236 12.2926 217.199 11.9091 215.93 11.9091C215.059 11.9091 214.244 12.1411 213.487 12.6051C212.739 13.0691 212.133 13.7131 211.669 14.5369C211.214 15.3513 210.987 16.2936 210.987 17.3636V31H207.635Z"/>
</mask>
<g filter="url(#filter0_i_0_1)">
<path d="M13.3271 1.90909H16.8498V22.7045C16.8498 24.5606 16.5089 26.1373 15.8271 27.4347C15.1452 28.732 14.1841 29.7169 12.9435 30.3892C11.703 31.0616 10.2399 31.3977 8.55433 31.3977C6.96342 31.3977 5.5477 31.1089 4.30717 30.5312C3.06664 29.9441 2.09126 29.1108 1.38104 28.0312C0.67081 26.9517 0.315696 25.6686 0.315696 24.1818H3.78161C3.78161 25.0057 3.9852 25.7254 4.3924 26.3409C4.80907 26.947 5.37725 27.4205 6.09695 27.7614C6.81664 28.1023 7.63577 28.2727 8.55433 28.2727C9.56759 28.2727 10.4293 28.0597 11.1396 27.6335C11.8498 27.2074 12.3896 26.5824 12.7589 25.7585C13.1377 24.9252 13.3271 23.9072 13.3271 22.7045V1.90909ZM32.3185 31.4545C30.3488 31.4545 28.6206 30.9858 27.1339 30.0483C25.6566 29.1108 24.5013 27.7992 23.668 26.1136C22.8441 24.428 22.4322 22.4583 22.4322 20.2045C22.4322 17.9318 22.8441 15.9479 23.668 14.2528C24.5013 12.5578 25.6566 11.2415 27.1339 10.304C28.6206 9.36648 30.3488 8.89773 32.3185 8.89773C34.2882 8.89773 36.0117 9.36648 37.489 10.304C38.9757 11.2415 40.131 12.5578 40.9549 14.2528C41.7882 15.9479 42.2049 17.9318 42.2049 20.2045C42.2049 22.4583 41.7882 24.428 40.9549 26.1136C40.131 27.7992 38.9757 29.1108 37.489 30.0483C36.0117 30.9858 34.2882 31.4545 32.3185 31.4545ZM32.3185 28.4432C33.8147 28.4432 35.0458 28.0597 36.0117 27.2926C36.9776 26.5256 37.6926 25.517 38.1566 24.267C38.6206 23.017 38.8526 21.6629 38.8526 20.2045C38.8526 18.7462 38.6206 17.3873 38.1566 16.1278C37.6926 14.8684 36.9776 13.8504 36.0117 13.0739C35.0458 12.2973 33.8147 11.9091 32.3185 11.9091C30.8223 11.9091 29.5913 12.2973 28.6254 13.0739C27.6594 13.8504 26.9445 14.8684 26.4805 16.1278C26.0165 17.3873 25.7844 18.7462 25.7844 20.2045C25.7844 21.6629 26.0165 23.017 26.4805 24.267C26.9445 25.517 27.6594 26.5256 28.6254 27.2926C29.5913 28.0597 30.8223 28.4432 32.3185 28.4432ZM47.7766 31V1.90909H51.1289V12.6477H51.413C51.6592 12.2689 52.0001 11.786 52.4357 11.1989C52.8808 10.6023 53.5153 10.072 54.3391 9.60795C55.1725 9.13447 56.2994 8.89773 57.7198 8.89773C59.5569 8.89773 61.1763 9.35701 62.5778 10.2756C63.9793 11.1941 65.073 12.4962 65.859 14.1818C66.645 15.8674 67.038 17.8561 67.038 20.1477C67.038 22.4583 66.645 24.4612 65.859 26.1562C65.073 27.8419 63.984 29.1487 62.592 30.0767C61.1999 30.9953 59.5948 31.4545 57.7766 31.4545C56.3751 31.4545 55.253 31.2225 54.4102 30.7585C53.5674 30.285 52.9187 29.75 52.4641 29.1534C52.0096 28.5473 51.6592 28.0455 51.413 27.6477H51.0153V31H47.7766ZM51.0721 20.0909C51.0721 21.7386 51.3136 23.1922 51.7965 24.4517C52.2795 25.7017 52.985 26.6818 53.913 27.392C54.841 28.0928 55.9774 28.4432 57.3221 28.4432C58.7236 28.4432 59.8931 28.0739 60.8306 27.3352C61.7776 26.5871 62.4878 25.5833 62.9613 24.3239C63.4442 23.0549 63.6857 21.6439 63.6857 20.0909C63.6857 18.5568 63.449 17.1742 62.9755 15.9432C62.5115 14.7027 61.806 13.7225 60.859 13.0028C59.9215 12.2737 58.7425 11.9091 57.3221 11.9091C55.9585 11.9091 54.8126 12.2547 53.8846 12.946C52.9566 13.6278 52.2558 14.5843 51.7823 15.8153C51.3088 17.0369 51.0721 18.4621 51.0721 20.0909ZM83.8704 31V1.90909H93.6999C95.9821 1.90909 97.8477 2.32102 99.2965 3.14489C100.755 3.95928 101.834 5.0625 102.535 6.45455C103.236 7.84659 103.586 9.39962 103.586 11.1136C103.586 12.8277 103.236 14.3854 102.535 15.7869C101.844 17.1884 100.774 18.3059 99.3249 19.1392C97.8761 19.9631 96.02 20.375 93.7567 20.375H86.7113V17.25H93.6431C95.2056 17.25 96.4603 16.9801 97.4073 16.4403C98.3543 15.9006 99.0408 15.1714 99.467 14.2528C99.9026 13.3248 100.12 12.2784 100.12 11.1136C100.12 9.94886 99.9026 8.9072 99.467 7.98864C99.0408 7.07008 98.3496 6.35038 97.3931 5.82955C96.4367 5.29924 95.1677 5.03409 93.5863 5.03409H87.3931V31H83.8704ZM112.159 1.90909V31H108.806V1.90909H112.159ZM124.719 31.5114C123.337 31.5114 122.082 31.2509 120.955 30.7301C119.828 30.1998 118.933 29.4375 118.27 28.4432C117.607 27.4394 117.276 26.2273 117.276 24.8068C117.276 23.5568 117.522 22.5436 118.015 21.767C118.507 20.9811 119.165 20.3655 119.989 19.9205C120.813 19.4754 121.722 19.1439 122.716 18.9261C123.72 18.6989 124.729 18.5189 125.742 18.3864C127.068 18.2159 128.142 18.0881 128.966 18.0028C129.8 17.9081 130.406 17.7519 130.784 17.5341C131.173 17.3163 131.367 16.9375 131.367 16.3977V16.2841C131.367 14.8826 130.983 13.7936 130.216 13.017C129.459 12.2405 128.308 11.8523 126.765 11.8523C125.164 11.8523 123.909 12.2027 123 12.9034C122.091 13.6042 121.452 14.3523 121.083 15.1477L117.901 14.0114C118.469 12.6856 119.227 11.6534 120.174 10.9148C121.13 10.1667 122.172 9.64583 123.299 9.35227C124.435 9.04924 125.552 8.89773 126.651 8.89773C127.352 8.89773 128.157 8.98295 129.066 9.15341C129.984 9.31439 130.87 9.65057 131.722 10.1619C132.584 10.6733 133.299 11.4451 133.867 12.4773C134.435 13.5095 134.719 14.892 134.719 16.625V31H131.367V28.0455H131.196C130.969 28.5189 130.59 29.0256 130.06 29.5653C129.53 30.1051 128.824 30.5644 127.944 30.9432C127.063 31.322 125.988 31.5114 124.719 31.5114ZM125.23 28.5C126.556 28.5 127.674 28.2396 128.583 27.7188C129.501 27.1979 130.193 26.5256 130.657 25.7017C131.13 24.8778 131.367 24.0114 131.367 23.1023V20.0341C131.225 20.2045 130.912 20.3608 130.429 20.5028C129.956 20.6354 129.407 20.7538 128.782 20.858C128.166 20.9527 127.565 21.0379 126.978 21.1136C126.4 21.1799 125.931 21.2367 125.571 21.2841C124.7 21.3977 123.886 21.5824 123.128 21.8381C122.38 22.0843 121.774 22.4583 121.31 22.9602C120.855 23.4527 120.628 24.125 120.628 24.9773C120.628 26.142 121.059 27.0227 121.921 27.6193C122.792 28.2064 123.895 28.5 125.23 28.5ZM150.326 9.18182V12.0227H139.02V9.18182H150.326ZM142.315 3.95455H145.667V24.75C145.667 25.697 145.805 26.4072 146.079 26.8807C146.363 27.3447 146.723 27.6572 147.159 27.8182C147.604 27.9697 148.073 28.0455 148.565 28.0455C148.934 28.0455 149.237 28.0265 149.474 27.9886C149.711 27.9413 149.9 27.9034 150.042 27.875L150.724 30.8864C150.497 30.9716 150.18 31.0568 149.772 31.142C149.365 31.2367 148.849 31.2841 148.224 31.2841C147.277 31.2841 146.349 31.0805 145.44 30.6733C144.54 30.2661 143.792 29.6458 143.196 28.8125C142.609 27.9792 142.315 26.928 142.315 25.6591V3.95455ZM165.085 9.18182V12.0227H153.324V9.18182H165.085ZM156.846 31V6.17045C156.846 4.92045 157.14 3.87879 157.727 3.04545C158.314 2.21212 159.076 1.58712 160.014 1.17045C160.951 0.753786 161.941 0.545453 162.983 0.545453C163.806 0.545453 164.479 0.611741 165 0.744318C165.52 0.876893 165.909 0.999998 166.164 1.11364L165.199 4.01136C165.028 3.95454 164.791 3.88352 164.488 3.7983C164.195 3.71307 163.806 3.67045 163.324 3.67045C162.216 3.67045 161.415 3.94981 160.923 4.50852C160.44 5.06723 160.199 5.88636 160.199 6.96591V31H156.846ZM177.748 31.4545C175.779 31.4545 174.05 30.9858 172.564 30.0483C171.086 29.1108 169.931 27.7992 169.098 26.1136C168.274 24.428 167.862 22.4583 167.862 20.2045C167.862 17.9318 168.274 15.9479 169.098 14.2528C169.931 12.5578 171.086 11.2415 172.564 10.304C174.05 9.36648 175.779 8.89773 177.748 8.89773C179.718 8.89773 181.441 9.36648 182.919 10.304C184.405 11.2415 185.561 12.5578 186.385 14.2528C187.218 15.9479 187.635 17.9318 187.635 20.2045C187.635 22.4583 187.218 24.428 186.385 26.1136C185.561 27.7992 184.405 29.1108 182.919 30.0483C181.441 30.9858 179.718 31.4545 177.748 31.4545ZM177.748 28.4432C179.244 28.4432 180.475 28.0597 181.441 27.2926C182.407 26.5256 183.122 25.517 183.586 24.267C184.05 23.017 184.282 21.6629 184.282 20.2045C184.282 18.7462 184.05 17.3873 183.586 16.1278C183.122 14.8684 182.407 13.8504 181.441 13.0739C180.475 12.2973 179.244 11.9091 177.748 11.9091C176.252 11.9091 175.021 12.2973 174.055 13.0739C173.089 13.8504 172.374 14.8684 171.91 16.1278C171.446 17.3873 171.214 18.7462 171.214 20.2045C171.214 21.6629 171.446 23.017 171.91 24.267C172.374 25.517 173.089 26.5256 174.055 27.2926C175.021 28.0597 176.252 28.4432 177.748 28.4432ZM192.752 31V9.18182H195.99V12.4773H196.218C196.615 11.3977 197.335 10.5218 198.377 9.84943C199.418 9.17708 200.593 8.84091 201.9 8.84091C202.146 8.84091 202.453 8.84564 202.823 8.85511C203.192 8.86458 203.471 8.87879 203.661 8.89773V12.3068C203.547 12.2784 203.287 12.2358 202.88 12.179C202.482 12.1127 202.06 12.0795 201.615 12.0795C200.555 12.0795 199.608 12.3021 198.775 12.7472C197.951 13.1828 197.297 13.7888 196.814 14.5653C196.341 15.3324 196.104 16.2083 196.104 17.1932V31H192.752ZM207.635 31V9.18182H210.873V12.5909H211.157C211.612 11.4261 212.346 10.5218 213.359 9.87784C214.372 9.22443 215.589 8.89773 217.01 8.89773C218.449 8.89773 219.647 9.22443 220.603 9.87784C221.569 10.5218 222.322 11.4261 222.862 12.5909H223.089C223.648 11.464 224.486 10.5691 225.603 9.90625C226.721 9.2339 228.061 8.89773 229.623 8.89773C231.574 8.89773 233.17 9.50852 234.41 10.7301C235.651 11.9422 236.271 13.8314 236.271 16.3977V31H232.919V16.3977C232.919 14.7879 232.478 13.6373 231.598 12.946C230.717 12.2547 229.68 11.9091 228.487 11.9091C226.953 11.9091 225.764 12.3731 224.922 13.3011C224.079 14.2197 223.657 15.3845 223.657 16.7955V31H220.248V16.0568C220.248 14.8163 219.846 13.8172 219.041 13.0597C218.236 12.2926 217.199 11.9091 215.93 11.9091C215.059 11.9091 214.244 12.1411 213.487 12.6051C212.739 13.0691 212.133 13.7131 211.669 14.5369C211.214 15.3513 210.987 16.2936 210.987 17.3636V31H207.635Z" fill="#AC7F7F"/>
<path d="M13.3271 1.90909H16.8498V22.7045C16.8498 24.5606 16.5089 26.1373 15.8271 27.4347C15.1452 28.732 14.1841 29.7169 12.9435 30.3892C11.703 31.0616 10.2399 31.3977 8.55433 31.3977C6.96342 31.3977 5.5477 31.1089 4.30717 30.5312C3.06664 29.9441 2.09126 29.1108 1.38104 28.0312C0.67081 26.9517 0.315696 25.6686 0.315696 24.1818H3.78161C3.78161 25.0057 3.9852 25.7254 4.3924 26.3409C4.80907 26.947 5.37725 27.4205 6.09695 27.7614C6.81664 28.1023 7.63577 28.2727 8.55433 28.2727C9.56759 28.2727 10.4293 28.0597 11.1396 27.6335C11.8498 27.2074 12.3896 26.5824 12.7589 25.7585C13.1377 24.9252 13.3271 23.9072 13.3271 22.7045V1.90909ZM32.3185 31.4545C30.3488 31.4545 28.6206 30.9858 27.1339 30.0483C25.6566 29.1108 24.5013 27.7992 23.668 26.1136C22.8441 24.428 22.4322 22.4583 22.4322 20.2045C22.4322 17.9318 22.8441 15.9479 23.668 14.2528C24.5013 12.5578 25.6566 11.2415 27.1339 10.304C28.6206 9.36648 30.3488 8.89773 32.3185 8.89773C34.2882 8.89773 36.0117 9.36648 37.489 10.304C38.9757 11.2415 40.131 12.5578 40.9549 14.2528C41.7882 15.9479 42.2049 17.9318 42.2049 20.2045C42.2049 22.4583 41.7882 24.428 40.9549 26.1136C40.131 27.7992 38.9757 29.1108 37.489 30.0483C36.0117 30.9858 34.2882 31.4545 32.3185 31.4545ZM32.3185 28.4432C33.8147 28.4432 35.0458 28.0597 36.0117 27.2926C36.9776 26.5256 37.6926 25.517 38.1566 24.267C38.6206 23.017 38.8526 21.6629 38.8526 20.2045C38.8526 18.7462 38.6206 17.3873 38.1566 16.1278C37.6926 14.8684 36.9776 13.8504 36.0117 13.0739C35.0458 12.2973 33.8147 11.9091 32.3185 11.9091C30.8223 11.9091 29.5913 12.2973 28.6254 13.0739C27.6594 13.8504 26.9445 14.8684 26.4805 16.1278C26.0165 17.3873 25.7844 18.7462 25.7844 20.2045C25.7844 21.6629 26.0165 23.017 26.4805 24.267C26.9445 25.517 27.6594 26.5256 28.6254 27.2926C29.5913 28.0597 30.8223 28.4432 32.3185 28.4432ZM47.7766 31V1.90909H51.1289V12.6477H51.413C51.6592 12.2689 52.0001 11.786 52.4357 11.1989C52.8808 10.6023 53.5153 10.072 54.3391 9.60795C55.1725 9.13447 56.2994 8.89773 57.7198 8.89773C59.5569 8.89773 61.1763 9.35701 62.5778 10.2756C63.9793 11.1941 65.073 12.4962 65.859 14.1818C66.645 15.8674 67.038 17.8561 67.038 20.1477C67.038 22.4583 66.645 24.4612 65.859 26.1562C65.073 27.8419 63.984 29.1487 62.592 30.0767C61.1999 30.9953 59.5948 31.4545 57.7766 31.4545C56.3751 31.4545 55.253 31.2225 54.4102 30.7585C53.5674 30.285 52.9187 29.75 52.4641 29.1534C52.0096 28.5473 51.6592 28.0455 51.413 27.6477H51.0153V31H47.7766ZM51.0721 20.0909C51.0721 21.7386 51.3136 23.1922 51.7965 24.4517C52.2795 25.7017 52.985 26.6818 53.913 27.392C54.841 28.0928 55.9774 28.4432 57.3221 28.4432C58.7236 28.4432 59.8931 28.0739 60.8306 27.3352C61.7776 26.5871 62.4878 25.5833 62.9613 24.3239C63.4442 23.0549 63.6857 21.6439 63.6857 20.0909C63.6857 18.5568 63.449 17.1742 62.9755 15.9432C62.5115 14.7027 61.806 13.7225 60.859 13.0028C59.9215 12.2737 58.7425 11.9091 57.3221 11.9091C55.9585 11.9091 54.8126 12.2547 53.8846 12.946C52.9566 13.6278 52.2558 14.5843 51.7823 15.8153C51.3088 17.0369 51.0721 18.4621 51.0721 20.0909ZM83.8704 31V1.90909H93.6999C95.9821 1.90909 97.8477 2.32102 99.2965 3.14489C100.755 3.95928 101.834 5.0625 102.535 6.45455C103.236 7.84659 103.586 9.39962 103.586 11.1136C103.586 12.8277 103.236 14.3854 102.535 15.7869C101.844 17.1884 100.774 18.3059 99.3249 19.1392C97.8761 19.9631 96.02 20.375 93.7567 20.375H86.7113V17.25H93.6431C95.2056 17.25 96.4603 16.9801 97.4073 16.4403C98.3543 15.9006 99.0408 15.1714 99.467 14.2528C99.9026 13.3248 100.12 12.2784 100.12 11.1136C100.12 9.94886 99.9026 8.9072 99.467 7.98864C99.0408 7.07008 98.3496 6.35038 97.3931 5.82955C96.4367 5.29924 95.1677 5.03409 93.5863 5.03409H87.3931V31H83.8704ZM112.159 1.90909V31H108.806V1.90909H112.159ZM124.719 31.5114C123.337 31.5114 122.082 31.2509 120.955 30.7301C119.828 30.1998 118.933 29.4375 118.27 28.4432C117.607 27.4394 117.276 26.2273 117.276 24.8068C117.276 23.5568 117.522 22.5436 118.015 21.767C118.507 20.9811 119.165 20.3655 119.989 19.9205C120.813 19.4754 121.722 19.1439 122.716 18.9261C123.72 18.6989 124.729 18.5189 125.742 18.3864C127.068 18.2159 128.142 18.0881 128.966 18.0028C129.8 17.9081 130.406 17.7519 130.784 17.5341C131.173 17.3163 131.367 16.9375 131.367 16.3977V16.2841C131.367 14.8826 130.983 13.7936 130.216 13.017C129.459 12.2405 128.308 11.8523 126.765 11.8523C125.164 11.8523 123.909 12.2027 123 12.9034C122.091 13.6042 121.452 14.3523 121.083 15.1477L117.901 14.0114C118.469 12.6856 119.227 11.6534 120.174 10.9148C121.13 10.1667 122.172 9.64583 123.299 9.35227C124.435 9.04924 125.552 8.89773 126.651 8.89773C127.352 8.89773 128.157 8.98295 129.066 9.15341C129.984 9.31439 130.87 9.65057 131.722 10.1619C132.584 10.6733 133.299 11.4451 133.867 12.4773C134.435 13.5095 134.719 14.892 134.719 16.625V31H131.367V28.0455H131.196C130.969 28.5189 130.59 29.0256 130.06 29.5653C129.53 30.1051 128.824 30.5644 127.944 30.9432C127.063 31.322 125.988 31.5114 124.719 31.5114ZM125.23 28.5C126.556 28.5 127.674 28.2396 128.583 27.7188C129.501 27.1979 130.193 26.5256 130.657 25.7017C131.13 24.8778 131.367 24.0114 131.367 23.1023V20.0341C131.225 20.2045 130.912 20.3608 130.429 20.5028C129.956 20.6354 129.407 20.7538 128.782 20.858C128.166 20.9527 127.565 21.0379 126.978 21.1136C126.4 21.1799 125.931 21.2367 125.571 21.2841C124.7 21.3977 123.886 21.5824 123.128 21.8381C122.38 22.0843 121.774 22.4583 121.31 22.9602C120.855 23.4527 120.628 24.125 120.628 24.9773C120.628 26.142 121.059 27.0227 121.921 27.6193C122.792 28.2064 123.895 28.5 125.23 28.5ZM150.326 9.18182V12.0227H139.02V9.18182H150.326ZM142.315 3.95455H145.667V24.75C145.667 25.697 145.805 26.4072 146.079 26.8807C146.363 27.3447 146.723 27.6572 147.159 27.8182C147.604 27.9697 148.073 28.0455 148.565 28.0455C148.934 28.0455 149.237 28.0265 149.474 27.9886C149.711 27.9413 149.9 27.9034 150.042 27.875L150.724 30.8864C150.497 30.9716 150.18 31.0568 149.772 31.142C149.365 31.2367 148.849 31.2841 148.224 31.2841C147.277 31.2841 146.349 31.0805 145.44 30.6733C144.54 30.2661 143.792 29.6458 143.196 28.8125C142.609 27.9792 142.315 26.928 142.315 25.6591V3.95455ZM165.085 9.18182V12.0227H153.324V9.18182H165.085ZM156.846 31V6.17045C156.846 4.92045 157.14 3.87879 157.727 3.04545C158.314 2.21212 159.076 1.58712 160.014 1.17045C160.951 0.753786 161.941 0.545453 162.983 0.545453C163.806 0.545453 164.479 0.611741 165 0.744318C165.52 0.876893 165.909 0.999998 166.164 1.11364L165.199 4.01136C165.028 3.95454 164.791 3.88352 164.488 3.7983C164.195 3.71307 163.806 3.67045 163.324 3.67045C162.216 3.67045 161.415 3.94981 160.923 4.50852C160.44 5.06723 160.199 5.88636 160.199 6.96591V31H156.846ZM177.748 31.4545C175.779 31.4545 174.05 30.9858 172.564 30.0483C171.086 29.1108 169.931 27.7992 169.098 26.1136C168.274 24.428 167.862 22.4583 167.862 20.2045C167.862 17.9318 168.274 15.9479 169.098 14.2528C169.931 12.5578 171.086 11.2415 172.564 10.304C174.05 9.36648 175.779 8.89773 177.748 8.89773C179.718 8.89773 181.441 9.36648 182.919 10.304C184.405 11.2415 185.561 12.5578 186.385 14.2528C187.218 15.9479 187.635 17.9318 187.635 20.2045C187.635 22.4583 187.218 24.428 186.385 26.1136C185.561 27.7992 184.405 29.1108 182.919 30.0483C181.441 30.9858 179.718 31.4545 177.748 31.4545ZM177.748 28.4432C179.244 28.4432 180.475 28.0597 181.441 27.2926C182.407 26.5256 183.122 25.517 183.586 24.267C184.05 23.017 184.282 21.6629 184.282 20.2045C184.282 18.7462 184.05 17.3873 183.586 16.1278C183.122 14.8684 182.407 13.8504 181.441 13.0739C180.475 12.2973 179.244 11.9091 177.748 11.9091C176.252 11.9091 175.021 12.2973 174.055 13.0739C173.089 13.8504 172.374 14.8684 171.91 16.1278C171.446 17.3873 171.214 18.7462 171.214 20.2045C171.214 21.6629 171.446 23.017 171.91 24.267C172.374 25.517 173.089 26.5256 174.055 27.2926C175.021 28.0597 176.252 28.4432 177.748 28.4432ZM192.752 31V9.18182H195.99V12.4773H196.218C196.615 11.3977 197.335 10.5218 198.377 9.84943C199.418 9.17708 200.593 8.84091 201.9 8.84091C202.146 8.84091 202.453 8.84564 202.823 8.85511C203.192 8.86458 203.471 8.87879 203.661 8.89773V12.3068C203.547 12.2784 203.287 12.2358 202.88 12.179C202.482 12.1127 202.06 12.0795 201.615 12.0795C200.555 12.0795 199.608 12.3021 198.775 12.7472C197.951 13.1828 197.297 13.7888 196.814 14.5653C196.341 15.3324 196.104 16.2083 196.104 17.1932V31H192.752ZM207.635 31V9.18182H210.873V12.5909H211.157C211.612 11.4261 212.346 10.5218 213.359 9.87784C214.372 9.22443 215.589 8.89773 217.01 8.89773C218.449 8.89773 219.647 9.22443 220.603 9.87784C221.569 10.5218 222.322 11.4261 222.862 12.5909H223.089C223.648 11.464 224.486 10.5691 225.603 9.90625C226.721 9.2339 228.061 8.89773 229.623 8.89773C231.574 8.89773 233.17 9.50852 234.41 10.7301C235.651 11.9422 236.271 13.8314 236.271 16.3977V31H232.919V16.3977C232.919 14.7879 232.478 13.6373 231.598 12.946C230.717 12.2547 229.68 11.9091 228.487 11.9091C226.953 11.9091 225.764 12.3731 224.922 13.3011C224.079 14.2197 223.657 15.3845 223.657 16.7955V31H220.248V16.0568C220.248 14.8163 219.846 13.8172 219.041 13.0597C218.236 12.2926 217.199 11.9091 215.93 11.9091C215.059 11.9091 214.244 12.1411 213.487 12.6051C212.739 13.0691 212.133 13.7131 211.669 14.5369C211.214 15.3513 210.987 16.2936 210.987 17.3636V31H207.635Z" fill="#C07373" fill-opacity="0.2"/>
<path d="M13.3271 1.90909H16.8498V22.7045C16.8498 24.5606 16.5089 26.1373 15.8271 27.4347C15.1452 28.732 14.1841 29.7169 12.9435 30.3892C11.703 31.0616 10.2399 31.3977 8.55433 31.3977C6.96342 31.3977 5.5477 31.1089 4.30717 30.5312C3.06664 29.9441 2.09126 29.1108 1.38104 28.0312C0.67081 26.9517 0.315696 25.6686 0.315696 24.1818H3.78161C3.78161 25.0057 3.9852 25.7254 4.3924 26.3409C4.80907 26.947 5.37725 27.4205 6.09695 27.7614C6.81664 28.1023 7.63577 28.2727 8.55433 28.2727C9.56759 28.2727 10.4293 28.0597 11.1396 27.6335C11.8498 27.2074 12.3896 26.5824 12.7589 25.7585C13.1377 24.9252 13.3271 23.9072 13.3271 22.7045V1.90909ZM32.3185 31.4545C30.3488 31.4545 28.6206 30.9858 27.1339 30.0483C25.6566 29.1108 24.5013 27.7992 23.668 26.1136C22.8441 24.428 22.4322 22.4583 22.4322 20.2045C22.4322 17.9318 22.8441 15.9479 23.668 14.2528C24.5013 12.5578 25.6566 11.2415 27.1339 10.304C28.6206 9.36648 30.3488 8.89773 32.3185 8.89773C34.2882 8.89773 36.0117 9.36648 37.489 10.304C38.9757 11.2415 40.131 12.5578 40.9549 14.2528C41.7882 15.9479 42.2049 17.9318 42.2049 20.2045C42.2049 22.4583 41.7882 24.428 40.9549 26.1136C40.131 27.7992 38.9757 29.1108 37.489 30.0483C36.0117 30.9858 34.2882 31.4545 32.3185 31.4545ZM32.3185 28.4432C33.8147 28.4432 35.0458 28.0597 36.0117 27.2926C36.9776 26.5256 37.6926 25.517 38.1566 24.267C38.6206 23.017 38.8526 21.6629 38.8526 20.2045C38.8526 18.7462 38.6206 17.3873 38.1566 16.1278C37.6926 14.8684 36.9776 13.8504 36.0117 13.0739C35.0458 12.2973 33.8147 11.9091 32.3185 11.9091C30.8223 11.9091 29.5913 12.2973 28.6254 13.0739C27.6594 13.8504 26.9445 14.8684 26.4805 16.1278C26.0165 17.3873 25.7844 18.7462 25.7844 20.2045C25.7844 21.6629 26.0165 23.017 26.4805 24.267C26.9445 25.517 27.6594 26.5256 28.6254 27.2926C29.5913 28.0597 30.8223 28.4432 32.3185 28.4432ZM47.7766 31V1.90909H51.1289V12.6477H51.413C51.6592 12.2689 52.0001 11.786 52.4357 11.1989C52.8808 10.6023 53.5153 10.072 54.3391 9.60795C55.1725 9.13447 56.2994 8.89773 57.7198 8.89773C59.5569 8.89773 61.1763 9.35701 62.5778 10.2756C63.9793 11.1941 65.073 12.4962 65.859 14.1818C66.645 15.8674 67.038 17.8561 67.038 20.1477C67.038 22.4583 66.645 24.4612 65.859 26.1562C65.073 27.8419 63.984 29.1487 62.592 30.0767C61.1999 30.9953 59.5948 31.4545 57.7766 31.4545C56.3751 31.4545 55.253 31.2225 54.4102 30.7585C53.5674 30.285 52.9187 29.75 52.4641 29.1534C52.0096 28.5473 51.6592 28.0455 51.413 27.6477H51.0153V31H47.7766ZM51.0721 20.0909C51.0721 21.7386 51.3136 23.1922 51.7965 24.4517C52.2795 25.7017 52.985 26.6818 53.913 27.392C54.841 28.0928 55.9774 28.4432 57.3221 28.4432C58.7236 28.4432 59.8931 28.0739 60.8306 27.3352C61.7776 26.5871 62.4878 25.5833 62.9613 24.3239C63.4442 23.0549 63.6857 21.6439 63.6857 20.0909C63.6857 18.5568 63.449 17.1742 62.9755 15.9432C62.5115 14.7027 61.806 13.7225 60.859 13.0028C59.9215 12.2737 58.7425 11.9091 57.3221 11.9091C55.9585 11.9091 54.8126 12.2547 53.8846 12.946C52.9566 13.6278 52.2558 14.5843 51.7823 15.8153C51.3088 17.0369 51.0721 18.4621 51.0721 20.0909ZM83.8704 31V1.90909H93.6999C95.9821 1.90909 97.8477 2.32102 99.2965 3.14489C100.755 3.95928 101.834 5.0625 102.535 6.45455C103.236 7.84659 103.586 9.39962 103.586 11.1136C103.586 12.8277 103.236 14.3854 102.535 15.7869C101.844 17.1884 100.774 18.3059 99.3249 19.1392C97.8761 19.9631 96.02 20.375 93.7567 20.375H86.7113V17.25H93.6431C95.2056 17.25 96.4603 16.9801 97.4073 16.4403C98.3543 15.9006 99.0408 15.1714 99.467 14.2528C99.9026 13.3248 100.12 12.2784 100.12 11.1136C100.12 9.94886 99.9026 8.9072 99.467 7.98864C99.0408 7.07008 98.3496 6.35038 97.3931 5.82955C96.4367 5.29924 95.1677 5.03409 93.5863 5.03409H87.3931V31H83.8704ZM112.159 1.90909V31H108.806V1.90909H112.159ZM124.719 31.5114C123.337 31.5114 122.082 31.2509 120.955 30.7301C119.828 30.1998 118.933 29.4375 118.27 28.4432C117.607 27.4394 117.276 26.2273 117.276 24.8068C117.276 23.5568 117.522 22.5436 118.015 21.767C118.507 20.9811 119.165 20.3655 119.989 19.9205C120.813 19.4754 121.722 19.1439 122.716 18.9261C123.72 18.6989 124.729 18.5189 125.742 18.3864C127.068 18.2159 128.142 18.0881 128.966 18.0028C129.8 17.9081 130.406 17.7519 130.784 17.5341C131.173 17.3163 131.367 16.9375 131.367 16.3977V16.2841C131.367 14.8826 130.983 13.7936 130.216 13.017C129.459 12.2405 128.308 11.8523 126.765 11.8523C125.164 11.8523 123.909 12.2027 123 12.9034C122.091 13.6042 121.452 14.3523 121.083 15.1477L117.901 14.0114C118.469 12.6856 119.227 11.6534 120.174 10.9148C121.13 10.1667 122.172 9.64583 123.299 9.35227C124.435 9.04924 125.552 8.89773 126.651 8.89773C127.352 8.89773 128.157 8.98295 129.066 9.15341C129.984 9.31439 130.87 9.65057 131.722 10.1619C132.584 10.6733 133.299 11.4451 133.867 12.4773C134.435 13.5095 134.719 14.892 134.719 16.625V31H131.367V28.0455H131.196C130.969 28.5189 130.59 29.0256 130.06 29.5653C129.53 30.1051 128.824 30.5644 127.944 30.9432C127.063 31.322 125.988 31.5114 124.719 31.5114ZM125.23 28.5C126.556 28.5 127.674 28.2396 128.583 27.7188C129.501 27.1979 130.193 26.5256 130.657 25.7017C131.13 24.8778 131.367 24.0114 131.367 23.1023V20.0341C131.225 20.2045 130.912 20.3608 130.429 20.5028C129.956 20.6354 129.407 20.7538 128.782 20.858C128.166 20.9527 127.565 21.0379 126.978 21.1136C126.4 21.1799 125.931 21.2367 125.571 21.2841C124.7 21.3977 123.886 21.5824 123.128 21.8381C122.38 22.0843 121.774 22.4583 121.31 22.9602C120.855 23.4527 120.628 24.125 120.628 24.9773C120.628 26.142 121.059 27.0227 121.921 27.6193C122.792 28.2064 123.895 28.5 125.23 28.5ZM150.326 9.18182V12.0227H139.02V9.18182H150.326ZM142.315 3.95455H145.667V24.75C145.667 25.697 145.805 26.4072 146.079 26.8807C146.363 27.3447 146.723 27.6572 147.159 27.8182C147.604 27.9697 148.073 28.0455 148.565 28.0455C148.934 28.0455 149.237 28.0265 149.474 27.9886C149.711 27.9413 149.9 27.9034 150.042 27.875L150.724 30.8864C150.497 30.9716 150.18 31.0568 149.772 31.142C149.365 31.2367 148.849 31.2841 148.224 31.2841C147.277 31.2841 146.349 31.0805 145.44 30.6733C144.54 30.2661 143.792 29.6458 143.196 28.8125C142.609 27.9792 142.315 26.928 142.315 25.6591V3.95455ZM165.085 9.18182V12.0227H153.324V9.18182H165.085ZM156.846 31V6.17045C156.846 4.92045 157.14 3.87879 157.727 3.04545C158.314 2.21212 159.076 1.58712 160.014 1.17045C160.951 0.753786 161.941 0.545453 162.983 0.545453C163.806 0.545453 164.479 0.611741 165 0.744318C165.52 0.876893 165.909 0.999998 166.164 1.11364L165.199 4.01136C165.028 3.95454 164.791 3.88352 164.488 3.7983C164.195 3.71307 163.806 3.67045 163.324 3.67045C162.216 3.67045 161.415 3.94981 160.923 4.50852C160.44 5.06723 160.199 5.88636 160.199 6.96591V31H156.846ZM177.748 31.4545C175.779 31.4545 174.05 30.9858 172.564 30.0483C171.086 29.1108 169.931 27.7992 169.098 26.1136C168.274 24.428 167.862 22.4583 167.862 20.2045C167.862 17.9318 168.274 15.9479 169.098 14.2528C169.931 12.5578 171.086 11.2415 172.564 10.304C174.05 9.36648 175.779 8.89773 177.748 8.89773C179.718 8.89773 181.441 9.36648 182.919 10.304C184.405 11.2415 185.561 12.5578 186.385 14.2528C187.218 15.9479 187.635 17.9318 187.635 20.2045C187.635 22.4583 187.218 24.428 186.385 26.1136C185.561 27.7992 184.405 29.1108 182.919 30.0483C181.441 30.9858 179.718 31.4545 177.748 31.4545ZM177.748 28.4432C179.244 28.4432 180.475 28.0597 181.441 27.2926C182.407 26.5256 183.122 25.517 183.586 24.267C184.05 23.017 184.282 21.6629 184.282 20.2045C184.282 18.7462 184.05 17.3873 183.586 16.1278C183.122 14.8684 182.407 13.8504 181.441 13.0739C180.475 12.2973 179.244 11.9091 177.748 11.9091C176.252 11.9091 175.021 12.2973 174.055 13.0739C173.089 13.8504 172.374 14.8684 171.91 16.1278C171.446 17.3873 171.214 18.7462 171.214 20.2045C171.214 21.6629 171.446 23.017 171.91 24.267C172.374 25.517 173.089 26.5256 174.055 27.2926C175.021 28.0597 176.252 28.4432 177.748 28.4432ZM192.752 31V9.18182H195.99V12.4773H196.218C196.615 11.3977 197.335 10.5218 198.377 9.84943C199.418 9.17708 200.593 8.84091 201.9 8.84091C202.146 8.84091 202.453 8.84564 202.823 8.85511C203.192 8.86458 203.471 8.87879 203.661 8.89773V12.3068C203.547 12.2784 203.287 12.2358 202.88 12.179C202.482 12.1127 202.06 12.0795 201.615 12.0795C200.555 12.0795 199.608 12.3021 198.775 12.7472C197.951 13.1828 197.297 13.7888 196.814 14.5653C196.341 15.3324 196.104 16.2083 196.104 17.1932V31H192.752ZM207.635 31V9.18182H210.873V12.5909H211.157C211.612 11.4261 212.346 10.5218 213.359 9.87784C214.372 9.22443 215.589 8.89773 217.01 8.89773C218.449 8.89773 219.647 9.22443 220.603 9.87784C221.569 10.5218 222.322 11.4261 222.862 12.5909H223.089C223.648 11.464 224.486 10.5691 225.603 9.90625C226.721 9.2339 228.061 8.89773 229.623 8.89773C231.574 8.89773 233.17 9.50852 234.41 10.7301C235.651 11.9422 236.271 13.8314 236.271 16.3977V31H232.919V16.3977C232.919 14.7879 232.478 13.6373 231.598 12.946C230.717 12.2547 229.68 11.9091 228.487 11.9091C226.953 11.9091 225.764 12.3731 224.922 13.3011C224.079 14.2197 223.657 15.3845 223.657 16.7955V31H220.248V16.0568C220.248 14.8163 219.846 13.8172 219.041 13.0597C218.236 12.2926 217.199 11.9091 215.93 11.9091C215.059 11.9091 214.244 12.1411 213.487 12.6051C212.739 13.0691 212.133 13.7131 211.669 14.5369C211.214 15.3513 210.987 16.2936 210.987 17.3636V31H207.635Z" fill="#EED0D0" fill-opacity="0.2"/>
</g>
<path d="M13.3271 1.90909V0.90909H12.3271V1.90909H13.3271ZM16.8498 1.90909H17.8498V0.90909H16.8498V1.90909ZM15.8271 27.4347L16.7123 27.8999L16.7123 27.8999L15.8271 27.4347ZM12.9435 30.3892L13.42 31.2684L13.42 31.2684L12.9435 30.3892ZM4.30717 30.5312L3.87938 31.4351L3.88505 31.4378L4.30717 30.5312ZM1.38104 28.0312L0.54562 28.5809L0.54562 28.5809L1.38104 28.0312ZM0.315696 24.1818V23.1818H-0.684304V24.1818H0.315696ZM3.78161 24.1818H4.78161V23.1818H3.78161V24.1818ZM4.3924 26.3409L3.55838 26.8926L3.5633 26.9001L3.56836 26.9074L4.3924 26.3409ZM6.09695 27.7614L6.52503 26.8576L6.52503 26.8576L6.09695 27.7614ZM11.1396 27.6335L10.6251 26.776L10.6251 26.776L11.1396 27.6335ZM12.7589 25.7585L11.8485 25.3447L11.8464 25.3495L12.7589 25.7585ZM13.3271 2.90909H16.8498V0.90909H13.3271V2.90909ZM15.8498 1.90909V22.7045H17.8498V1.90909H15.8498ZM15.8498 22.7045C15.8498 24.4407 15.5308 25.8488 14.9419 26.9694L16.7123 27.8999C17.4869 26.4259 17.8498 24.6805 17.8498 22.7045H15.8498ZM14.9419 26.9694C14.3485 28.0985 13.5263 28.9359 12.467 29.51L13.42 31.2684C14.8418 30.4978 15.942 29.3655 16.7123 27.8999L14.9419 26.9694ZM12.467 29.51C11.3988 30.089 10.1058 30.3977 8.55433 30.3977V32.3977C10.3741 32.3977 12.0072 32.0341 13.42 31.2684L12.467 29.51ZM8.55433 30.3977C7.08568 30.3977 5.81779 30.1316 4.7293 29.6247L3.88505 31.4378C5.27762 32.0862 6.84116 32.3977 8.55433 32.3977V30.3977ZM4.73496 29.6274C3.6495 29.1136 2.81954 28.3983 2.21645 27.4816L0.54562 28.5809C1.36299 29.8233 2.48379 30.7746 3.87938 31.4351L4.73496 29.6274ZM2.21645 27.4816C1.62906 26.5888 1.3157 25.5034 1.3157 24.1818H-0.684304C-0.684304 25.8337 -0.287444 27.3146 0.54562 28.5809L2.21645 27.4816ZM0.315696 25.1818H3.78161V23.1818H0.315696V25.1818ZM2.78161 24.1818C2.78161 25.1782 3.03058 26.0948 3.55838 26.8926L5.22642 25.7892C4.93983 25.356 4.78161 24.8331 4.78161 24.1818H2.78161ZM3.56836 26.9074C4.09317 27.6708 4.80337 28.2551 5.66886 28.6651L6.52503 26.8576C5.95113 26.5858 5.52497 26.2231 5.21644 25.7744L3.56836 26.9074ZM5.66886 28.6651C6.54145 29.0784 7.51039 29.2727 8.55433 29.2727V27.2727C7.76116 27.2727 7.09184 27.1261 6.52503 26.8576L5.66886 28.6651ZM8.55433 29.2727C9.70842 29.2727 10.7571 29.0292 11.6541 28.491L10.6251 26.776C10.1016 27.0901 9.42676 27.2727 8.55433 27.2727V29.2727ZM11.6541 28.491C12.5556 27.9501 13.2263 27.1605 13.6714 26.1676L11.8464 25.3495C11.5528 26.0043 11.144 26.4647 10.6251 26.776L11.6541 28.491ZM13.6692 26.1723C14.1226 25.175 14.3271 24.0072 14.3271 22.7045H12.3271C12.3271 23.8072 12.1528 24.6753 11.8485 25.3447L13.6692 26.1723ZM14.3271 22.7045V1.90909H12.3271V22.7045H14.3271ZM27.1339 30.0483L26.5981 30.8926L26.6005 30.8942L27.1339 30.0483ZM23.668 26.1136L22.7695 26.5528L22.7715 26.5568L23.668 26.1136ZM23.668 14.2528L22.7705 13.8116L22.7686 13.8157L23.668 14.2528ZM27.1339 10.304L26.6005 9.4581L26.5981 9.45965L27.1339 10.304ZM37.489 10.304L36.9532 11.1483L36.9556 11.1499L37.489 10.304ZM40.9549 14.2528L40.0555 14.69L40.0575 14.694L40.9549 14.2528ZM40.9549 26.1136L40.0585 25.6705L40.0565 25.6745L40.9549 26.1136ZM37.489 30.0483L36.9556 29.2024L36.9532 29.204L37.489 30.0483ZM36.0117 27.2926L35.3898 26.5095L35.3898 26.5095L36.0117 27.2926ZM38.1566 24.267L39.0941 24.6151L39.0941 24.6151L38.1566 24.267ZM38.1566 16.1278L39.0949 15.7821L39.0949 15.7821L38.1566 16.1278ZM36.0117 13.0739L36.6383 12.2945L36.6383 12.2945L36.0117 13.0739ZM28.6254 13.0739L27.9988 12.2945L27.9988 12.2945L28.6254 13.0739ZM26.4805 16.1278L25.5421 15.7821L25.5421 15.7821L26.4805 16.1278ZM26.4805 24.267L25.543 24.6151L25.543 24.6151L26.4805 24.267ZM28.6254 27.2926L29.2472 26.5095L29.2472 26.5095L28.6254 27.2926ZM32.3185 30.4545C30.5142 30.4545 28.9756 30.0274 27.6673 29.2024L26.6005 30.8942C28.2657 31.9442 30.1835 32.4545 32.3185 32.4545V30.4545ZM27.6697 29.204C26.3587 28.372 25.3228 27.2046 24.5644 25.6705L22.7715 26.5568C23.6798 28.3939 24.9545 29.8496 26.5981 30.8926L27.6697 29.204ZM24.5664 25.6745C23.8215 24.1505 23.4322 22.3364 23.4322 20.2045H21.4322C21.4322 22.5803 21.8667 24.7056 22.7695 26.5528L24.5664 25.6745ZM23.4322 20.2045C23.4322 18.0525 23.822 16.2236 24.5674 14.69L22.7686 13.8157C21.8663 15.6722 21.4322 17.8111 21.4322 20.2045H23.4322ZM24.5654 14.694C25.3243 13.1504 26.3601 11.9794 27.6697 11.1483L26.5981 9.45965C24.9531 10.5035 23.6783 11.9651 22.7706 13.8117L24.5654 14.694ZM27.6673 11.1499C28.9756 10.3249 30.5142 9.89773 32.3185 9.89773V7.89773C30.1835 7.89773 28.2657 8.40809 26.6005 9.4581L27.6673 11.1499ZM32.3185 9.89773C34.123 9.89773 35.6557 10.3249 36.9532 11.1483L38.0248 9.45965C36.3678 8.40806 34.4534 7.89773 32.3185 7.89773V9.89773ZM36.9556 11.1499C38.2732 11.9807 39.307 13.15 40.0555 14.69L41.8543 13.8157C40.9551 11.9655 39.6783 10.5023 38.0224 9.4581L36.9556 11.1499ZM40.0575 14.694C40.811 16.2267 41.2049 18.0541 41.2049 20.2045H43.2049C43.2049 17.8096 42.7655 15.6691 41.8523 13.8117L40.0575 14.694ZM41.2049 20.2045C41.2049 22.3348 40.8114 24.1474 40.0585 25.6705L41.8513 26.5568C42.765 24.7087 43.2049 22.5819 43.2049 20.2045H41.2049ZM40.0565 25.6745C39.3084 27.205 38.2746 28.3707 36.9556 29.2024L38.0224 30.8942C39.6769 29.8509 40.9536 28.3935 41.8533 26.5528L40.0565 25.6745ZM36.9532 29.204C35.6557 30.0274 34.123 30.4545 32.3185 30.4545V32.4545C34.4534 32.4545 36.3678 31.9442 38.0248 30.8926L36.9532 29.204ZM32.3185 29.4432C33.9909 29.4432 35.4555 29.0113 36.6336 28.0757L35.3898 26.5095C34.6361 27.1081 33.6386 27.4432 32.3185 27.4432V29.4432ZM36.6336 28.0757C37.754 27.186 38.5719 26.0218 39.0941 24.6151L37.2191 23.919C36.8133 25.0123 36.2013 25.8651 35.3898 26.5095L36.6336 28.0757ZM39.0941 24.6151C39.6032 23.2437 39.8526 21.7705 39.8526 20.2045H37.8526C37.8526 21.5552 37.6381 22.7904 37.2191 23.919L39.0941 24.6151ZM39.8526 20.2045C39.8526 18.6385 39.6031 17.1615 39.0949 15.7821L37.2183 16.4735C37.6381 17.6131 37.8526 18.854 37.8526 20.2045H39.8526ZM39.0949 15.7821C38.5736 14.3671 37.7572 13.194 36.6383 12.2945L35.3852 13.8532C36.1981 14.5068 36.8115 15.3696 37.2183 16.4735L39.0949 15.7821ZM36.6383 12.2945C35.4601 11.3473 33.9937 10.9091 32.3185 10.9091V12.9091C33.6358 12.9091 34.6316 13.2474 35.3852 13.8532L36.6383 12.2945ZM32.3185 10.9091C30.6433 10.9091 29.177 11.3473 27.9988 12.2945L29.2519 13.8532C30.0055 13.2474 31.0013 12.9091 32.3185 12.9091V10.9091ZM27.9988 12.2945C26.8799 13.194 26.0634 14.3671 25.5421 15.7821L27.4188 16.4735C27.8255 15.3696 28.439 14.5068 29.2519 13.8532L27.9988 12.2945ZM25.5421 15.7821C25.0339 17.1615 24.7844 18.6385 24.7844 20.2045H26.7844C26.7844 18.854 26.999 17.6131 27.4188 16.4735L25.5421 15.7821ZM24.7844 20.2045C24.7844 21.7705 25.0339 23.2437 25.543 24.6151L27.418 23.919C26.999 22.7904 26.7844 21.5552 26.7844 20.2045H24.7844ZM25.543 24.6151C26.0652 26.0218 26.8831 27.186 28.0035 28.0757L29.2472 26.5095C28.4358 25.8651 27.8238 25.0123 27.418 23.919L25.543 24.6151ZM28.0035 28.0757C29.1816 29.0113 30.6462 29.4432 32.3185 29.4432V27.4432C30.9985 27.4432 30.001 27.1081 29.2472 26.5095L28.0035 28.0757ZM47.7766 31H46.7766V32H47.7766V31ZM47.7766 1.90909V0.90909H46.7766V1.90909H47.7766ZM51.1289 1.90909H52.1289V0.90909H51.1289V1.90909ZM51.1289 12.6477H50.1289V13.6477H51.1289V12.6477ZM51.413 12.6477V13.6477H51.9557L52.2514 13.1927L51.413 12.6477ZM52.4357 11.1989L51.6342 10.6009L51.6326 10.603L52.4357 11.1989ZM54.3391 9.60795L54.8299 10.4793L54.8331 10.4774L54.3391 9.60795ZM62.5778 10.2756L63.1259 9.4392L63.1259 9.4392L62.5778 10.2756ZM65.859 26.1562L66.7653 26.5789L66.7662 26.5769L65.859 26.1562ZM62.592 30.0767L63.1427 30.9114L63.1467 30.9088L62.592 30.0767ZM54.4102 30.7585L53.9203 31.6304L53.9279 31.6345L54.4102 30.7585ZM52.4641 29.1534L51.6641 29.7534L51.6687 29.7595L52.4641 29.1534ZM51.413 27.6477L52.2633 27.1214L51.9701 26.6477H51.413V27.6477ZM51.0153 27.6477V26.6477H50.0153V27.6477H51.0153ZM51.0153 31V32H52.0153V31H51.0153ZM51.7965 24.4517L50.8628 24.8097L50.8637 24.8121L51.7965 24.4517ZM53.913 27.392L53.3052 28.1862L53.3104 28.1901L53.913 27.392ZM60.8306 27.3352L61.4495 28.1207L61.4505 28.1199L60.8306 27.3352ZM62.9613 24.3239L62.0267 23.9682L62.0253 23.972L62.9613 24.3239ZM62.9755 15.9432L62.0388 16.2935L62.0422 16.3022L62.9755 15.9432ZM60.859 13.0028L60.245 13.7922L60.2539 13.799L60.859 13.0028ZM53.8846 12.946L54.4767 13.7519L54.482 13.748L53.8846 12.946ZM51.7823 15.8153L52.7147 16.1767L52.7157 16.1743L51.7823 15.8153ZM48.7766 31V1.90909H46.7766V31H48.7766ZM47.7766 2.90909H51.1289V0.90909H47.7766V2.90909ZM50.1289 1.90909V12.6477H52.1289V1.90909H50.1289ZM51.1289 13.6477H51.413V11.6477H51.1289V13.6477ZM52.2514 13.1927C52.4817 12.8385 52.809 12.374 53.2388 11.7947L51.6326 10.603C51.1912 11.198 50.8367 11.6994 50.5746 12.1027L52.2514 13.1927ZM53.2372 11.7968C53.5796 11.3379 54.0959 10.8927 54.8299 10.4793L53.8484 8.73665C52.9347 9.25126 52.182 9.86665 51.6342 10.6009L53.2372 11.7968ZM54.8331 10.4774C55.4604 10.121 56.395 9.89773 57.7198 9.89773V7.89773C56.2037 7.89773 54.8845 8.14792 53.8451 8.7385L54.8331 10.4774ZM57.7198 9.89773C59.3817 9.89773 60.8066 10.3104 62.0296 11.1119L63.1259 9.4392C61.5459 8.40366 59.7322 7.89773 57.7198 7.89773V9.89773ZM62.0296 11.1119C63.2589 11.9176 64.2364 13.0683 64.9527 14.6044L66.7653 13.7592C65.9097 11.9242 64.6997 10.4707 63.1259 9.4392L62.0296 11.1119ZM64.9527 14.6044C65.6644 16.1306 66.038 17.969 66.038 20.1477H68.038C68.038 17.7432 67.6256 15.6042 66.7653 13.7592L64.9527 14.6044ZM66.038 20.1477C66.038 22.3466 65.664 24.1997 64.9518 25.7356L66.7662 26.5769C67.626 24.7227 68.038 22.5701 68.038 20.1477H66.038ZM64.9527 25.7336C64.2353 27.2722 63.2602 28.4294 62.0373 29.2447L63.1467 30.9088C64.7079 29.868 65.9108 28.4115 66.7653 26.5789L64.9527 25.7336ZM62.0412 29.242C60.8273 30.043 59.4174 30.4545 57.7766 30.4545V32.4545C59.7722 32.4545 61.5725 31.9475 63.1427 30.9114L62.0412 29.242ZM57.7766 30.4545C56.4719 30.4545 55.5353 30.2364 54.8925 29.8825L53.9279 31.6345C54.9706 32.2086 56.2783 32.4545 57.7766 32.4545V30.4545ZM54.9 29.8867C54.1432 29.4615 53.6113 29.009 53.2596 28.5474L51.6687 29.7595C52.2261 30.491 52.9915 31.1086 53.9204 31.6304L54.9 29.8867ZM53.2641 28.5534C52.818 27.9585 52.4873 27.4833 52.2633 27.1214L50.5627 28.1741C50.8311 28.6077 51.2012 29.1362 51.6641 29.7534L53.2641 28.5534ZM51.413 26.6477H51.0153V28.6477H51.413V26.6477ZM50.0153 27.6477V31H52.0153V27.6477H50.0153ZM51.0153 30H47.7766V32H51.0153V30ZM50.0721 20.0909C50.0721 21.8348 50.3275 23.4138 50.8628 24.8097L52.7302 24.0937C52.2996 22.9707 52.0721 21.6425 52.0721 20.0909H50.0721ZM50.8637 24.8121C51.4031 26.2081 52.2106 27.3484 53.3052 28.1862L54.5207 26.5979C53.7594 26.0152 53.1558 25.1953 52.7293 24.0913L50.8637 24.8121ZM53.3104 28.1901C54.4383 29.0417 55.7953 29.4432 57.3221 29.4432V27.4432C56.1595 27.4432 55.2438 27.1439 54.5156 26.594L53.3104 28.1901ZM57.3221 29.4432C58.9074 29.4432 60.3061 29.0216 61.4495 28.1207L60.2117 26.5497C59.4801 27.1261 58.5398 27.4432 57.3221 27.4432V29.4432ZM61.4505 28.1199C62.5562 27.2464 63.3674 26.0855 63.8973 24.6758L62.0253 23.972C61.6082 25.0812 60.9989 25.9279 60.2107 26.5505L61.4505 28.1199ZM63.8959 24.6796C64.4278 23.2819 64.6857 21.7482 64.6857 20.0909H62.6857C62.6857 21.5397 62.4607 22.8279 62.0267 23.9682L63.8959 24.6796ZM64.6857 20.0909C64.6857 18.4538 64.4329 16.9469 63.9088 15.5842L62.0422 16.3022C62.465 17.4016 62.6857 18.6599 62.6857 20.0909H64.6857ZM63.9121 15.5928C63.3897 14.1961 62.5782 13.0534 61.4641 12.2067L60.2539 13.799C61.0338 14.3917 61.6333 15.2092 62.0389 16.2935L63.9121 15.5928ZM61.473 12.2135C60.3274 11.3225 58.9198 10.9091 57.3221 10.9091V12.9091C58.5652 12.9091 59.5156 13.2249 60.2451 13.7922L61.473 12.2135ZM57.3221 10.9091C55.7829 10.9091 54.4172 11.3023 53.2872 12.1441L54.482 13.748C55.2081 13.2071 56.134 12.9091 57.3221 12.9091V10.9091ZM53.2925 12.1401C52.1889 12.951 51.3809 14.0734 50.849 15.4564L52.7157 16.1743C53.1307 15.0952 53.7243 14.3047 54.4767 13.7519L53.2925 12.1401ZM50.8499 15.4539C50.3223 16.815 50.0721 18.3675 50.0721 20.0909H52.0721C52.0721 18.5567 52.2953 17.2588 52.7147 16.1767L50.8499 15.4539ZM83.8704 31H82.8704V32H83.8704V31ZM83.8704 1.90909V0.90909H82.8704V1.90909H83.8704ZM99.2965 3.14489L98.8022 4.0142L98.809 4.01797L99.2965 3.14489ZM102.535 6.45455L101.642 6.90419L101.642 6.90419L102.535 6.45455ZM102.535 15.7869L101.641 15.3397L101.638 15.3446L102.535 15.7869ZM99.3249 19.1392L99.8192 20.0085L99.8235 20.006L99.3249 19.1392ZM86.7113 20.375H85.7113V21.375H86.7113V20.375ZM86.7113 17.25V16.25H85.7113V17.25H86.7113ZM97.4073 16.4403L96.9121 15.5716L96.9121 15.5716L97.4073 16.4403ZM99.467 14.2528L98.5617 13.8279L98.5598 13.832L99.467 14.2528ZM99.467 7.98864L98.5598 8.40949L98.5634 8.41712L99.467 7.98864ZM97.3931 5.82955L96.9082 6.70414L96.9149 6.70777L97.3931 5.82955ZM87.3931 5.03409V4.03409H86.3931V5.03409H87.3931ZM87.3931 31V32H88.3931V31H87.3931ZM84.8704 31V1.90909H82.8704V31H84.8704ZM83.8704 2.90909H93.6999V0.90909H83.8704V2.90909ZM93.6999 2.90909C95.87 2.90909 97.5495 3.30187 98.8022 4.01418L99.7908 2.27559C98.1458 1.34018 96.0942 0.90909 93.6999 0.90909V2.90909ZM98.809 4.01797C100.106 4.74227 101.038 5.70366 101.642 6.90419L103.428 6.0049C102.631 4.42134 101.404 3.17629 99.7841 2.2718L98.809 4.01797ZM101.642 6.90419C102.266 8.14326 102.586 9.53995 102.586 11.1136H104.586C104.586 9.25929 104.206 7.54992 103.428 6.0049L101.642 6.90419ZM102.586 11.1136C102.586 12.6872 102.266 14.0897 101.641 15.3397L103.43 16.2341C104.206 14.6811 104.586 12.9681 104.586 11.1136H102.586ZM101.638 15.3446C101.041 16.5557 100.116 17.5307 98.8264 18.2724L99.8235 20.006C101.432 19.0811 102.647 17.8212 103.432 16.2293L101.638 15.3446ZM98.8306 18.2699C97.5769 18.9828 95.9062 19.375 93.7567 19.375V21.375C96.1338 21.375 98.1753 20.9433 99.8192 20.0085L98.8306 18.2699ZM93.7567 19.375H86.7113V21.375H93.7567V19.375ZM87.7113 20.375V17.25H85.7113V20.375H87.7113ZM86.7113 18.25H93.6431V16.25H86.7113V18.25ZM93.6431 18.25C95.3084 18.25 96.7532 17.9642 97.9025 17.3091L96.9121 15.5716C96.1675 15.996 95.1028 16.25 93.6431 16.25V18.25ZM97.9025 17.3091C99.0154 16.6748 99.8537 15.7954 100.374 14.6737L98.5598 13.832C98.2279 14.5474 97.6931 15.1264 96.9121 15.5716L97.9025 17.3091ZM100.372 14.6777C100.878 13.5997 101.12 12.4052 101.12 11.1136H99.1204C99.1204 12.1516 98.9269 13.0499 98.5617 13.8279L100.372 14.6777ZM101.12 11.1136C101.12 9.82225 100.878 8.63086 100.371 7.56015L98.5634 8.41712C98.9269 9.18353 99.1204 10.0755 99.1204 11.1136H101.12ZM100.374 7.5678C99.8508 6.43972 99.001 5.56648 97.8714 4.95132L96.9149 6.70777C97.6981 7.13428 98.2309 7.70043 98.5598 8.40947L100.374 7.5678ZM97.878 4.95498C96.7216 4.31381 95.2666 4.03409 93.5863 4.03409V6.03409C95.0689 6.03409 96.1517 6.28468 96.9082 6.70411L97.878 4.95498ZM93.5863 4.03409H87.3931V6.03409H93.5863V4.03409ZM86.3931 5.03409V31H88.3931V5.03409H86.3931ZM87.3931 30H83.8704V32H87.3931V30ZM112.159 1.90909H113.159V0.90909H112.159V1.90909ZM112.159 31V32H113.159V31H112.159ZM108.806 31H107.806V32H108.806V31ZM108.806 1.90909V0.90909H107.806V1.90909H108.806ZM111.159 1.90909V31H113.159V1.90909H111.159ZM112.159 30H108.806V32H112.159V30ZM109.806 31V1.90909H107.806V31H109.806ZM108.806 2.90909H112.159V0.90909H108.806V2.90909ZM120.955 30.7301L120.529 31.635L120.535 31.6378L120.955 30.7301ZM118.27 28.4432L117.436 28.9942L117.438 28.9979L118.27 28.4432ZM118.015 21.767L118.859 22.3026L118.862 22.298L118.015 21.767ZM122.716 18.9261L122.93 19.903L122.937 19.9014L122.716 18.9261ZM125.742 18.3864L125.614 17.3945L125.612 17.3948L125.742 18.3864ZM128.966 18.0028L129.069 18.9976L129.079 18.9964L128.966 18.0028ZM130.784 17.5341L130.295 16.6619L130.286 16.6672L130.784 17.5341ZM130.216 13.017L129.5 13.7154L129.505 13.7198L130.216 13.017ZM123 12.9034L123.611 13.6954L123.611 13.6954L123 12.9034ZM121.083 15.1477L120.746 16.0895L121.606 16.3963L121.99 15.5688L121.083 15.1477ZM117.901 14.0114L116.982 13.6174L116.563 14.5953L117.565 14.9531L117.901 14.0114ZM120.174 10.9148L120.789 11.7033L120.79 11.7024L120.174 10.9148ZM123.299 9.35227L123.551 10.32L123.556 10.3185L123.299 9.35227ZM129.066 9.15341L128.881 10.1363L128.893 10.1384L129.066 9.15341ZM131.722 10.1619L131.207 11.0194L131.212 11.0219L131.722 10.1619ZM133.867 12.4773L132.991 12.9595L132.991 12.9595L133.867 12.4773ZM134.719 31V32H135.719V31H134.719ZM131.367 31H130.367V32H131.367V31ZM131.367 28.0455H132.367V27.0455H131.367V28.0455ZM131.196 28.0455V27.0455H130.567L130.295 27.6127L131.196 28.0455ZM130.06 29.5653L130.773 30.2662L130.773 30.2662L130.06 29.5653ZM127.944 30.9432L127.548 30.0245L127.548 30.0245L127.944 30.9432ZM128.583 27.7188L128.089 26.8488L128.086 26.8511L128.583 27.7188ZM130.657 25.7017L129.79 25.2034L129.785 25.211L130.657 25.7017ZM131.367 20.0341H132.367V17.272L130.599 19.3939L131.367 20.0341ZM130.429 20.5028L130.699 21.4659L130.711 21.4622L130.429 20.5028ZM128.782 20.858L128.934 21.8464L128.946 21.8443L128.782 20.858ZM126.978 21.1136L127.092 22.1072L127.106 22.1054L126.978 21.1136ZM125.571 21.2841L125.701 22.2757L125.702 22.2755L125.571 21.2841ZM123.128 21.8381L123.441 22.788L123.448 22.7856L123.128 21.8381ZM121.31 22.9602L120.576 22.2814L120.575 22.2819L121.31 22.9602ZM121.921 27.6193L121.352 28.4416L121.362 28.4486L121.921 27.6193ZM124.719 30.5114C123.465 30.5114 122.356 30.2758 121.374 29.8224L120.535 31.6378C121.808 32.2261 123.208 32.5114 124.719 32.5114V30.5114ZM121.381 29.8253C120.411 29.3691 119.66 28.7247 119.102 27.8885L117.438 28.9979C118.206 30.1503 119.245 31.0305 120.529 31.6349L121.381 29.8253ZM119.105 27.8921C118.568 27.0796 118.276 26.0674 118.276 24.8068H116.276C116.276 26.3871 116.647 27.7992 117.436 28.9942L119.105 27.8921ZM118.276 24.8068C118.276 23.6804 118.499 22.8711 118.859 22.3026L117.17 21.2315C116.546 22.216 116.276 23.4332 116.276 24.8068H118.276ZM118.862 22.298C119.262 21.66 119.791 21.164 120.464 20.8003L119.514 19.0406C118.539 19.5671 117.752 20.3022 117.167 21.2361L118.862 22.298ZM120.464 20.8003C121.199 20.4033 122.019 20.1025 122.93 19.903L122.502 17.9493C121.425 18.1854 120.427 18.5475 119.514 19.0406L120.464 20.8003ZM122.937 19.9014C123.911 19.6809 124.889 19.5065 125.872 19.3779L125.612 17.3948C124.568 17.5314 123.529 17.7168 122.495 17.9508L122.937 19.9014ZM125.869 19.3782C127.191 19.2082 128.257 19.0816 129.069 18.9975L128.863 17.0081C128.028 17.0946 126.944 17.2236 125.614 17.3945L125.869 19.3782ZM129.079 18.9964C129.946 18.8979 130.721 18.7242 131.283 18.401L130.286 16.6672C130.09 16.7796 129.653 16.9184 128.853 17.0092L129.079 18.9964ZM131.274 18.4062C132.049 17.9711 132.367 17.2083 132.367 16.3977H130.367C130.367 16.5504 130.339 16.6151 130.331 16.6306C130.327 16.6381 130.325 16.6406 130.324 16.642C130.322 16.6437 130.315 16.6511 130.295 16.6619L131.274 18.4062ZM132.367 16.3977V16.2841H130.367V16.3977H132.367ZM132.367 16.2841C132.367 14.6976 131.928 13.327 130.928 12.3143L129.505 13.7198C130.039 14.2601 130.367 15.0676 130.367 16.2841H132.367ZM130.932 12.3187C129.919 11.28 128.462 10.8523 126.765 10.8523V12.8523C128.154 12.8523 128.999 13.2011 129.5 13.7154L130.932 12.3187ZM126.765 10.8523C125.029 10.8523 123.531 11.2316 122.39 12.1114L123.611 13.6954C124.288 13.1737 125.3 12.8523 126.765 12.8523V10.8523ZM122.39 12.1114C121.391 12.881 120.63 13.7476 120.176 14.7266L121.99 15.5688C122.274 14.957 122.791 14.3274 123.611 13.6954L122.39 12.1114ZM121.419 14.206L118.237 13.0696L117.565 14.9531L120.746 16.0895L121.419 14.206ZM118.82 14.4053C119.335 13.2035 119.999 12.3192 120.789 11.7033L119.559 10.1263C118.454 10.9876 117.603 12.1677 116.982 13.6174L118.82 14.4053ZM120.79 11.7024C121.643 11.0349 122.562 10.5776 123.551 10.32L123.047 8.38457C121.782 8.71409 120.617 9.2984 119.558 10.1271L120.79 11.7024ZM123.556 10.3185C124.615 10.0363 125.645 9.89773 126.651 9.89773V7.89773C125.46 7.89773 124.255 8.06217 123.041 8.38604L123.556 10.3185ZM126.651 9.89773C127.274 9.89773 128.015 9.97384 128.881 10.1363L129.25 8.17054C128.298 7.99207 127.429 7.89773 126.651 7.89773V9.89773ZM128.893 10.1384C129.683 10.2768 130.453 10.567 131.207 11.0194L132.236 9.30444C131.286 8.73416 130.285 8.35194 129.238 8.16842L128.893 10.1384ZM131.212 11.0219C131.895 11.4273 132.493 12.0559 132.991 12.9595L134.743 11.995C134.104 10.8343 133.273 9.91925 132.232 9.30195L131.212 11.0219ZM132.991 12.9595C133.448 13.7906 133.719 14.9869 133.719 16.625H135.719C135.719 14.7972 135.422 13.2283 134.743 11.995L132.991 12.9595ZM133.719 16.625V31H135.719V16.625H133.719ZM134.719 30H131.367V32H134.719V30ZM132.367 31V28.0455H130.367V31H132.367ZM131.367 27.0455H131.196V29.0455H131.367V27.0455ZM130.295 27.6127C130.131 27.9539 129.831 28.3717 129.347 28.8645L130.773 30.2662C131.35 29.6795 131.807 29.084 132.098 28.4782L130.295 27.6127ZM129.347 28.8645C128.928 29.2906 128.34 29.6839 127.548 30.0245L128.339 31.8618C129.308 31.4449 130.131 30.9196 130.773 30.2662L129.347 28.8645ZM127.548 30.0245C126.826 30.3353 125.894 30.5114 124.719 30.5114V32.5114C126.082 32.5114 127.3 32.3086 128.339 31.8618L127.548 30.0245ZM125.23 29.5C126.685 29.5 127.984 29.2141 129.08 28.5864L128.086 26.8511C127.363 27.2651 126.427 27.5 125.23 27.5V29.5ZM129.076 28.5886C130.134 27.9889 130.965 27.1927 131.528 26.1924L129.785 25.211C129.421 25.8585 128.869 26.4069 128.09 26.8489L129.076 28.5886ZM131.524 26.2C132.08 25.2317 132.367 24.1943 132.367 23.1023H130.367C130.367 23.8284 130.18 24.524 129.79 25.2034L131.524 26.2ZM132.367 23.1023V20.0341H130.367V23.1023H132.367ZM130.599 19.3939C130.652 19.3298 130.675 19.3367 130.579 19.3847C130.493 19.4276 130.354 19.4825 130.147 19.5435L130.711 21.4622C130.987 21.3811 131.246 21.2869 131.473 21.1735C131.69 21.0653 131.94 20.9088 132.135 20.6743L130.599 19.3939ZM130.16 19.5399C129.729 19.6605 129.216 19.7717 128.617 19.8716L128.946 21.8443C129.597 21.7359 130.183 21.6104 130.699 21.4658L130.16 19.5399ZM128.63 19.8696C128.022 19.9631 127.428 20.0472 126.85 20.1219L127.106 22.1054C127.701 22.0286 128.311 21.9422 128.934 21.8463L128.63 19.8696ZM126.864 20.1202C126.283 20.1867 125.808 20.2443 125.441 20.2926L125.702 22.2755C126.054 22.2292 126.517 22.1731 127.092 22.1071L126.864 20.1202ZM125.442 20.2925C124.512 20.4138 123.634 20.6121 122.808 20.8906L123.448 22.7856C124.138 22.5527 124.888 22.3817 125.701 22.2757L125.442 20.2925ZM122.816 20.8882C121.931 21.1793 121.172 21.6369 120.576 22.2814L122.044 23.6391C122.377 23.2797 122.829 22.9892 123.441 22.7879L122.816 20.8882ZM120.575 22.2819C119.907 23.0053 119.628 23.9445 119.628 24.9773H121.628C121.628 24.3055 121.803 23.9 122.045 23.6385L120.575 22.2819ZM119.628 24.9773C119.628 26.4275 120.187 27.6351 121.352 28.4415L122.49 26.7971C121.931 26.4104 121.628 25.8566 121.628 24.9773H119.628ZM121.362 28.4486C122.438 29.1737 123.75 29.5 125.23 29.5V27.5C124.041 27.5 123.146 27.2392 122.48 26.7901L121.362 28.4486ZM150.326 9.18182H151.326V8.18182H150.326V9.18182ZM150.326 12.0227V13.0227H151.326V12.0227H150.326ZM139.02 12.0227H138.02V13.0227H139.02V12.0227ZM139.02 9.18182V8.18182H138.02V9.18182H139.02ZM142.315 3.95455V2.95455H141.315V3.95455H142.315ZM145.667 3.95455H146.667V2.95455H145.667V3.95455ZM146.079 26.8807L145.214 27.3824L145.22 27.3927L145.226 27.4028L146.079 26.8807ZM147.159 27.8182L146.812 28.7562L146.824 28.7607L146.836 28.7648L147.159 27.8182ZM149.474 27.9886L149.632 28.9761L149.651 28.973L149.67 28.9692L149.474 27.9886ZM150.042 27.875L151.018 27.6542L150.802 26.7032L149.846 26.8944L150.042 27.875ZM150.724 30.8864L151.075 31.8227L151.892 31.5164L151.699 30.6655L150.724 30.8864ZM149.772 31.142L149.568 30.1633L149.557 30.1655L149.546 30.168L149.772 31.142ZM145.44 30.6733L145.028 31.5843L145.031 31.5859L145.44 30.6733ZM143.196 28.8125L142.378 29.3885L142.383 29.3946L143.196 28.8125ZM149.326 9.18182V12.0227H151.326V9.18182H149.326ZM150.326 11.0227H139.02V13.0227H150.326V11.0227ZM140.02 12.0227V9.18182H138.02V12.0227H140.02ZM139.02 10.1818H150.326V8.18182H139.02V10.1818ZM142.315 4.95455H145.667V2.95455H142.315V4.95455ZM144.667 3.95455V24.75H146.667V3.95455H144.667ZM144.667 24.75C144.667 25.7609 144.808 26.6822 145.214 27.3824L146.944 26.379C146.801 26.1322 146.667 25.6331 146.667 24.75H144.667ZM145.226 27.4028C145.607 28.0241 146.131 28.5045 146.812 28.7562L147.505 26.8802C147.315 26.8099 147.12 26.6653 146.932 26.3585L145.226 27.4028ZM146.836 28.7648C147.39 28.9533 147.968 29.0455 148.565 29.0455V27.0455C148.177 27.0455 147.817 26.9861 147.481 26.8715L146.836 28.7648ZM148.565 29.0455C148.962 29.0455 149.323 29.0255 149.632 28.9761L149.316 27.0012C149.152 27.0275 148.906 27.0455 148.565 27.0455V29.0455ZM149.67 28.9692C149.907 28.9219 150.096 28.884 150.238 28.8556L149.846 26.8944C149.704 26.9228 149.515 26.9607 149.278 27.0081L149.67 28.9692ZM149.067 28.0958L149.749 31.1072L151.699 30.6655L151.018 27.6542L149.067 28.0958ZM150.373 29.95C150.215 30.0092 149.955 30.0822 149.568 30.1633L149.977 32.1208C150.404 32.0314 150.778 31.934 151.075 31.8227L150.373 29.95ZM149.546 30.168C149.24 30.2392 148.806 30.2841 148.224 30.2841V32.2841C148.892 32.2841 149.491 32.2343 149.999 32.1161L149.546 30.168ZM148.224 30.2841C147.425 30.2841 146.636 30.1133 145.849 29.7607L145.031 31.5859C146.062 32.0477 147.129 32.2841 148.224 32.2841V30.2841ZM145.852 29.7623C145.119 29.4304 144.507 28.9264 144.009 28.2304L142.383 29.3946C143.077 30.3653 143.962 31.1018 145.028 31.5843L145.852 29.7623ZM144.013 28.2365C143.571 27.6091 143.315 26.7728 143.315 25.6591H141.315C141.315 27.0833 141.646 28.3492 142.378 29.3885L144.013 28.2365ZM143.315 25.6591V3.95455H141.315V25.6591H143.315ZM165.085 9.18182H166.085V8.18182H165.085V9.18182ZM165.085 12.0227V13.0227H166.085V12.0227H165.085ZM153.324 12.0227H152.324V13.0227H153.324V12.0227ZM153.324 9.18182V8.18182H152.324V9.18182H153.324ZM156.846 31H155.846V32H156.846V31ZM157.727 3.04545L156.909 2.4695L156.909 2.4695L157.727 3.04545ZM160.014 1.17045L159.608 0.256641L159.608 0.256641L160.014 1.17045ZM165 0.744318L164.753 1.71341L164.753 1.71342L165 0.744318ZM166.164 1.11364L167.113 1.42986L167.4 0.568557L166.571 0.199824L166.164 1.11364ZM165.199 4.01136L164.882 4.96005L165.831 5.27627L166.147 4.32759L165.199 4.01136ZM164.488 3.7983L164.209 4.75867L164.218 4.76095L164.488 3.7983ZM160.923 4.50852L160.173 3.84729L160.166 3.85457L160.923 4.50852ZM160.199 31V32H161.199V31H160.199ZM164.085 9.18182V12.0227H166.085V9.18182H164.085ZM165.085 11.0227H153.324V13.0227H165.085V11.0227ZM154.324 12.0227V9.18182H152.324V12.0227H154.324ZM153.324 10.1818H165.085V8.18182H153.324V10.1818ZM157.846 31V6.17045H155.846V31H157.846ZM157.846 6.17045C157.846 5.07936 158.101 4.25123 158.544 3.62141L156.909 2.4695C156.179 3.50634 155.846 4.76155 155.846 6.17045H157.846ZM158.544 3.62141C159.027 2.93678 159.646 2.42804 160.42 2.08426L159.608 0.256641C158.506 0.746199 157.601 1.48746 156.909 2.4695L158.544 3.62141ZM160.42 2.08426C161.228 1.72531 162.079 1.54545 162.983 1.54545V-0.454547C161.803 -0.454547 160.675 -0.217743 159.608 0.256641L160.42 2.08426ZM162.983 1.54545C163.762 1.54545 164.343 1.60918 164.753 1.71341L165.246 -0.224779C164.614 -0.385693 163.851 -0.454547 162.983 -0.454547V1.54545ZM164.753 1.71342C165.259 1.84229 165.582 1.94892 165.758 2.02745L166.571 0.199824C166.236 0.0510792 165.782 -0.0885008 165.246 -0.22478L164.753 1.71342ZM165.216 0.797407L164.25 3.69513L166.147 4.32759L167.113 1.42986L165.216 0.797407ZM165.515 3.06268C165.322 2.99848 165.068 2.9225 164.759 2.83564L164.218 4.76095C164.515 4.84455 164.734 4.91061 164.882 4.96005L165.515 3.06268ZM164.767 2.83795C164.346 2.71577 163.853 2.67045 163.324 2.67045V4.67045C163.76 4.67045 164.043 4.71037 164.209 4.75864L164.767 2.83795ZM163.324 2.67045C162.07 2.67045 160.932 2.98589 160.173 3.84732L161.673 5.16972C161.899 4.91373 162.361 4.67045 163.324 4.67045V2.67045ZM160.166 3.85457C159.468 4.66292 159.199 5.75462 159.199 6.96591H161.199C161.199 6.01811 161.412 5.47155 161.679 5.16248L160.166 3.85457ZM159.199 6.96591V31H161.199V6.96591H159.199ZM160.199 30H156.846V32H160.199V30ZM172.564 30.0483L172.028 30.8926L172.03 30.8942L172.564 30.0483ZM169.098 26.1136L168.199 26.5528L168.201 26.5568L169.098 26.1136ZM169.098 14.2528L168.2 13.8116L168.198 13.8157L169.098 14.2528ZM172.564 10.304L172.03 9.4581L172.028 9.45965L172.564 10.304ZM182.919 10.304L182.383 11.1483L182.385 11.1499L182.919 10.304ZM186.385 14.2528L185.485 14.69L185.487 14.694L186.385 14.2528ZM186.385 26.1136L185.488 25.6705L185.486 25.6745L186.385 26.1136ZM182.919 30.0483L182.385 29.2024L182.383 29.204L182.919 30.0483ZM181.441 27.2926L180.82 26.5095L180.82 26.5095L181.441 27.2926ZM183.586 24.267L184.524 24.6151L184.524 24.6151L183.586 24.267ZM183.586 16.1278L184.525 15.7821L184.525 15.7821L183.586 16.1278ZM181.441 13.0739L182.068 12.2945L182.068 12.2945L181.441 13.0739ZM174.055 13.0739L173.428 12.2945L173.428 12.2945L174.055 13.0739ZM171.91 16.1278L170.972 15.7821L170.972 15.7821L171.91 16.1278ZM171.91 24.267L170.973 24.6151L170.973 24.6151L171.91 24.267ZM174.055 27.2926L174.677 26.5095L174.677 26.5095L174.055 27.2926ZM177.748 30.4545C175.944 30.4545 174.405 30.0274 173.097 29.2024L172.03 30.8942C173.695 31.9442 175.613 32.4545 177.748 32.4545V30.4545ZM173.099 29.204C171.788 28.372 170.753 27.2046 169.994 25.6705L168.201 26.5568C169.109 28.3939 170.384 29.8496 172.028 30.8926L173.099 29.204ZM169.996 25.6745C169.251 24.1505 168.862 22.3364 168.862 20.2045H166.862C166.862 22.5803 167.296 24.7056 168.199 26.5528L169.996 25.6745ZM168.862 20.2045C168.862 18.0525 169.252 16.2236 169.997 14.69L168.198 13.8157C167.296 15.6722 166.862 17.8111 166.862 20.2045H168.862ZM169.995 14.694C170.754 13.1504 171.79 11.9794 173.099 11.1483L172.028 9.45965C170.383 10.5035 169.108 11.9651 168.2 13.8117L169.995 14.694ZM173.097 11.1499C174.405 10.3249 175.944 9.89773 177.748 9.89773V7.89773C175.613 7.89773 173.695 8.40809 172.03 9.4581L173.097 11.1499ZM177.748 9.89773C179.553 9.89773 181.085 10.3249 182.383 11.1483L183.455 9.45965C181.797 8.40806 179.883 7.89773 177.748 7.89773V9.89773ZM182.385 11.1499C183.703 11.9807 184.737 13.15 185.485 14.69L187.284 13.8157C186.385 11.9655 185.108 10.5023 183.452 9.4581L182.385 11.1499ZM185.487 14.694C186.241 16.2267 186.635 18.0541 186.635 20.2045H188.635C188.635 17.8096 188.195 15.6691 187.282 13.8117L185.487 14.694ZM186.635 20.2045C186.635 22.3348 186.241 24.1474 185.488 25.6705L187.281 26.5568C188.195 24.7087 188.635 22.5819 188.635 20.2045H186.635ZM185.486 25.6745C184.738 27.205 183.704 28.3707 182.385 29.2024L183.452 30.8942C185.107 29.8509 186.383 28.3935 187.283 26.5528L185.486 25.6745ZM182.383 29.204C181.085 30.0274 179.553 30.4545 177.748 30.4545V32.4545C179.883 32.4545 181.797 31.9442 183.455 30.8926L182.383 29.204ZM177.748 29.4432C179.421 29.4432 180.885 29.0113 182.063 28.0757L180.82 26.5095C180.066 27.1081 179.068 27.4432 177.748 27.4432V29.4432ZM182.063 28.0757C183.184 27.186 184.002 26.0218 184.524 24.6151L182.649 23.919C182.243 25.0123 181.631 25.8651 180.82 26.5095L182.063 28.0757ZM184.524 24.6151C185.033 23.2437 185.282 21.7705 185.282 20.2045H183.282C183.282 21.5552 183.068 22.7904 182.649 23.919L184.524 24.6151ZM185.282 20.2045C185.282 18.6385 185.033 17.1615 184.525 15.7821L182.648 16.4735C183.068 17.6131 183.282 18.854 183.282 20.2045H185.282ZM184.525 15.7821C184.003 14.3671 183.187 13.194 182.068 12.2945L180.815 13.8532C181.628 14.5068 182.241 15.3696 182.648 16.4735L184.525 15.7821ZM182.068 12.2945C180.89 11.3473 179.423 10.9091 177.748 10.9091V12.9091C179.065 12.9091 180.061 13.2474 180.815 13.8532L182.068 12.2945ZM177.748 10.9091C176.073 10.9091 174.607 11.3473 173.428 12.2945L174.682 13.8532C175.435 13.2474 176.431 12.9091 177.748 12.9091V10.9091ZM173.428 12.2945C172.31 13.194 171.493 14.3671 170.972 15.7821L172.848 16.4735C173.255 15.3696 173.869 14.5068 174.682 13.8532L173.428 12.2945ZM170.972 15.7821C170.464 17.1615 170.214 18.6385 170.214 20.2045H172.214C172.214 18.854 172.429 17.6131 172.848 16.4735L170.972 15.7821ZM170.214 20.2045C170.214 21.7705 170.464 23.2437 170.973 24.6151L172.848 23.919C172.429 22.7904 172.214 21.5552 172.214 20.2045H170.214ZM170.973 24.6151C171.495 26.0218 172.313 27.186 173.433 28.0757L174.677 26.5095C173.866 25.8651 173.253 25.0123 172.848 23.919L170.973 24.6151ZM173.433 28.0757C174.611 29.0113 176.076 29.4432 177.748 29.4432V27.4432C176.428 27.4432 175.431 27.1081 174.677 26.5095L173.433 28.0757ZM192.752 31H191.752V32H192.752V31ZM192.752 9.18182V8.18182H191.752V9.18182H192.752ZM195.99 9.18182H196.99V8.18182H195.99V9.18182ZM195.99 12.4773H194.99V13.4773H195.99V12.4773ZM196.218 12.4773V13.4773H196.915L197.156 12.823L196.218 12.4773ZM198.377 9.84943L197.834 9.00925L197.834 9.00925L198.377 9.84943ZM203.661 8.89773H204.661V7.99274L203.76 7.90269L203.661 8.89773ZM203.661 12.3068L203.418 13.277L204.661 13.5876V12.3068H203.661ZM202.88 12.179L202.715 13.1654L202.728 13.1675L202.741 13.1694L202.88 12.179ZM198.775 12.7472L199.242 13.6312L199.246 13.6292L198.775 12.7472ZM196.814 14.5653L195.965 14.0372L195.963 14.0401L196.814 14.5653ZM196.104 31V32H197.104V31H196.104ZM193.752 31V9.18182H191.752V31H193.752ZM192.752 10.1818H195.99V8.18182H192.752V10.1818ZM194.99 9.18182V12.4773H196.99V9.18182H194.99ZM195.99 13.4773H196.218V11.4773H195.99V13.4773ZM197.156 12.823C197.473 11.963 198.045 11.2541 198.919 10.6896L197.834 9.00925C196.626 9.78945 195.758 10.8325 195.279 12.1316L197.156 12.823ZM198.919 10.6896C199.79 10.1274 200.774 9.84091 201.9 9.84091V7.84091C200.411 7.84091 199.047 8.2268 197.834 9.00925L198.919 10.6896ZM201.9 9.84091C202.134 9.84091 202.433 9.84544 202.797 9.85478L202.848 7.85544C202.474 7.84585 202.157 7.84091 201.9 7.84091V9.84091ZM202.797 9.85478C203.16 9.86409 203.41 9.8776 203.561 9.89276L203.76 7.90269C203.533 7.87997 203.224 7.86507 202.848 7.85544L202.797 9.85478ZM202.661 8.89773V12.3068H204.661V8.89773H202.661ZM203.903 11.3367C203.728 11.2927 203.41 11.2433 203.018 11.1886L202.741 13.1694C202.941 13.1972 203.099 13.2209 203.219 13.2404C203.279 13.2502 203.326 13.2585 203.362 13.2653C203.379 13.2687 203.393 13.2715 203.403 13.2736C203.414 13.2759 203.418 13.277 203.418 13.277L203.903 11.3367ZM203.044 11.1926C202.587 11.1164 202.11 11.0795 201.615 11.0795V13.0795C202.011 13.0795 202.377 13.109 202.715 13.1654L203.044 11.1926ZM201.615 11.0795C200.411 11.0795 199.299 11.3335 198.303 11.8651L199.246 13.6292C199.917 13.2707 200.699 13.0795 201.615 13.0795V11.0795ZM198.307 11.8631C197.33 12.3798 196.543 13.1074 195.965 14.0372L197.663 15.0935C198.051 14.4703 198.571 13.9857 199.242 13.6312L198.307 11.8631ZM195.963 14.0401C195.383 14.9795 195.104 16.0406 195.104 17.1932H197.104C197.104 16.3761 197.298 15.6853 197.665 15.0906L195.963 14.0401ZM195.104 17.1932V31H197.104V17.1932H195.104ZM196.104 30H192.752V32H196.104V30ZM207.635 31H206.635V32H207.635V31ZM207.635 9.18182V8.18182H206.635V9.18182H207.635ZM210.873 9.18182H211.873V8.18182H210.873V9.18182ZM210.873 12.5909H209.873V13.5909H210.873V12.5909ZM211.157 12.5909V13.5909H211.841L212.089 12.9545L211.157 12.5909ZM213.359 9.87784L213.895 10.7218L213.901 10.7183L213.359 9.87784ZM220.603 9.87784L220.039 10.7036L220.049 10.7099L220.603 9.87784ZM222.862 12.5909L221.955 13.0114L222.223 13.5909H222.862V12.5909ZM223.089 12.5909V13.5909H223.709L223.985 13.0351L223.089 12.5909ZM225.603 9.90625L226.114 10.7663L226.119 10.7631L225.603 9.90625ZM234.41 10.7301L233.709 11.4426L233.711 11.4454L234.41 10.7301ZM236.271 31V32H237.271V31H236.271ZM232.919 31H231.919V32H232.919V31ZM231.598 12.946L230.98 13.7326L230.98 13.7326L231.598 12.946ZM224.922 13.3011L225.658 13.9772L225.662 13.9734L224.922 13.3011ZM223.657 31V32H224.657V31H223.657ZM220.248 31H219.248V32H220.248V31ZM219.041 13.0597L218.351 13.7836L218.355 13.7879L219.041 13.0597ZM213.487 12.6051L212.965 11.7523L212.96 11.7553L213.487 12.6051ZM211.669 14.5369L210.797 14.0462L210.795 14.0496L211.669 14.5369ZM210.987 31V32H211.987V31H210.987ZM208.635 31V9.18182H206.635V31H208.635ZM207.635 10.1818H210.873V8.18182H207.635V10.1818ZM209.873 9.18182V12.5909H211.873V9.18182H209.873ZM210.873 13.5909H211.157V11.5909H210.873V13.5909ZM212.089 12.9545C212.47 11.979 213.069 11.2468 213.895 10.7218L212.823 9.03385C211.622 9.7968 210.754 10.8733 210.226 12.2274L212.089 12.9545ZM213.901 10.7183C214.726 10.1864 215.747 9.89773 217.01 9.89773V7.89773C215.432 7.89773 214.019 8.26244 212.817 9.03743L213.901 10.7183ZM217.01 9.89773C218.297 9.89773 219.285 10.1886 220.039 10.7035L221.167 9.05213C220.008 8.2603 218.601 7.89773 217.01 7.89773V9.89773ZM220.049 10.7099C220.845 11.2411 221.484 11.9954 221.955 13.0114L223.769 12.1704C223.16 10.8569 222.293 9.80245 221.158 9.04579L220.049 10.7099ZM222.862 13.5909H223.089V11.5909H222.862V13.5909ZM223.985 13.0351C224.455 12.0871 225.156 11.3341 226.114 10.7663L225.093 9.0462C223.815 9.80413 222.841 10.8409 222.193 12.1467L223.985 13.0351ZM226.119 10.7631C227.052 10.2015 228.206 9.89773 229.623 9.89773V7.89773C227.915 7.89773 226.389 8.26634 225.088 9.0494L226.119 10.7631ZM229.623 9.89773C231.346 9.89773 232.678 10.4281 233.709 11.4426L235.112 10.0176C233.661 8.58892 231.802 7.89773 229.623 7.89773V9.89773ZM233.711 11.4454C234.683 12.3952 235.271 13.9719 235.271 16.3977H237.271C237.271 13.691 236.618 11.4893 235.109 10.0149L233.711 11.4454ZM235.271 16.3977V31H237.271V16.3977H235.271ZM236.271 30H232.919V32H236.271V30ZM233.919 31V16.3977H231.919V31H233.919ZM233.919 16.3977C233.919 14.6214 233.43 13.1128 232.215 12.1594L230.98 13.7326C231.527 14.1618 231.919 14.9543 231.919 16.3977H233.919ZM232.215 12.1594C231.146 11.3204 229.888 10.9091 228.487 10.9091V12.9091C229.472 12.9091 230.288 13.189 230.98 13.7326L232.215 12.1594ZM228.487 10.9091C226.739 10.9091 225.255 11.4465 224.181 12.6288L225.662 13.9734C226.274 13.2997 227.167 12.9091 228.487 12.9091V10.9091ZM224.185 12.6251C223.15 13.7527 222.657 15.1696 222.657 16.7955H224.657C224.657 15.5993 225.007 14.6867 225.658 13.9772L224.185 12.6251ZM222.657 16.7955V31H224.657V16.7955H222.657ZM223.657 30H220.248V32H223.657V30ZM221.248 31V16.0568H219.248V31H221.248ZM221.248 16.0568C221.248 14.5777 220.757 13.3021 219.726 12.3315L218.355 13.7879C218.934 14.3324 219.248 15.0548 219.248 16.0568H221.248ZM219.731 12.3357C218.713 11.3662 217.417 10.9091 215.93 10.9091V12.9091C216.981 12.9091 217.759 13.219 218.351 13.7836L219.731 12.3357ZM215.93 10.9091C214.871 10.9091 213.876 11.1941 212.965 11.7524L214.009 13.4579C214.613 13.0881 215.247 12.9091 215.93 12.9091V10.9091ZM212.96 11.7553C212.058 12.3146 211.338 13.0868 210.797 14.0462L212.54 15.0277C212.928 14.3394 213.42 13.8236 214.014 13.4549L212.96 11.7553ZM210.795 14.0496C210.246 15.0337 209.987 16.1484 209.987 17.3636H211.987C211.987 16.4387 212.182 15.669 212.542 15.0243L210.795 14.0496ZM209.987 17.3636V31H211.987V17.3636H209.987ZM210.987 30H207.635V32H210.987V30Z" fill="#CDB3B3" mask="url(#path-1-outside-1_0_1)"/>
</g>
<defs>
<filter id="filter0_i_0_1" x="0.315689" y="0.545456" width="235.955" height="34.9659" filterUnits="userSpaceOnUse" color-interpolation-filters="sRGB">
<feFlood flood-opacity="0" result="BackgroundImageFix"/>
<feBlend mode="normal" in="SourceGraphic" in2="BackgroundImageFix" result="shape"/>
<feColorMatrix in="SourceAlpha" type="matrix" values="0 0 0 0 0 0 0 0 0 0 0 0 0 0 0 0 0 0 127 0" result="hardAlpha"/>
<feOffset dy="4"/>
<feGaussianBlur stdDeviation="2"/>
<feComposite in2="hardAlpha" operator="arithmetic" k2="-1" k3="1"/>
<feColorMatrix type="matrix" values="0 0 0 0 0 0 0 0 0 0 0 0 0 0 0 0 0 0 0.25 0"/>
<feBlend mode="normal" in2="shape" result="effect1_innerShadow_0_1"/>
</filter>
</defs>
</svg>
